<?xml version="1.0" encoding="utf-8"?>
<!-- Generator: Adobe Illustrator 17.1.0, SVG Export Plug-In . SVG Version: 6.00 Build 0)  -->
<!DOCTYPE svg PUBLIC "-//W3C//DTD SVG 1.1//EN" "http://www.w3.org/Graphics/SVG/1.1/DTD/svg11.dtd">
<svg version="1.1" xmlns="http://www.w3.org/2000/svg" xmlns:xlink="http://www.w3.org/1999/xlink" x="0px" y="0px" width="32px"
	 height="32px" fill="#444444" viewBox="0 0 32 32" enable-background="new 0 0 32 32" xml:space="preserve">
<g id="Ebene_1">
	<path d="M78.9,28.8c-1.5-2.5-4.3-3.5-6.4-3.9c-1.8-0.3-3-1-3.7-2c-0.2-0.4-0.4-0.7-0.5-1c0.4-0.3,0.7-0.7,1-1.1
		c1.4-1.7,2.2-4.1,2.2-6.5c0-3-0.4-5.1-1.4-6.6C69,5.7,66.9,4.8,64,4.8c-6.8,0-7.5,5.4-7.5,9.5c0,2.5,0.8,4.8,2.2,6.5
		c0.2,0.3,0.5,0.5,0.7,0.8c-0.1,0.4-0.2,0.8-0.5,1.3c-0.7,1-1.9,1.6-3.7,2c-2.1,0.4-4.9,1.4-6.4,3.9c-0.9,1.5-0.9,2.9-0.9,2.9
		c0,0.2,0.2,0.4,0.4,0.4h0c0,0,0,0,0,0h31.2c0,0,0,0,0,0c0,0,0.1,0,0.1,0c0.2,0,0.4-0.2,0.4-0.4C79.8,31.7,79.8,30.3,78.9,28.8z
		 M60.5,6.2c0.3,0.3,1.6,1.2,3.5,1.2c1.9,0,3.3-1,3.5-1.2c0.9,0.4,1.5,1,2,1.9c0.5,0.9,0.9,2,1.1,3.4l-1.2,0.6
		c-0.2-0.4-0.6-0.7-1.1-0.7h-2.5c-0.5,0-1,0.4-1.2,0.9h-1.4c-0.2-0.5-0.6-0.9-1.2-0.9h-2.5c-0.5,0-0.9,0.3-1.1,0.7l-1.1-0.6
		c0.2-1.4,0.6-2.6,1.2-3.5C59,7.2,59.7,6.6,60.5,6.2z M68.9,12.6v1.3c0,0.3-0.2,0.5-0.5,0.5h-2.5c-0.3,0-0.5-0.2-0.5-0.5v-1.3
		c0-0.3,0.2-0.5,0.5-0.5h2.5C68.7,12.1,68.9,12.3,68.9,12.6z M62.6,12.6v1.3c0,0.3-0.2,0.5-0.5,0.5h-2.5c-0.3,0-0.5-0.2-0.5-0.5
		v-1.3c0-0.3,0.2-0.5,0.5-0.5h2.5C62.4,12.1,62.6,12.3,62.6,12.6z M57.4,16.6c-0.2-0.7-0.2-1.5-0.2-2.3c0-0.7,0-1.4,0.1-2l1.1,0.6
		v1.1c0,0.7,0.5,1.2,1.2,1.2h2.5c0.7,0,1.2-0.5,1.2-1.2v-1h1.3v1c0,0.7,0.5,1.2,1.2,1.2h2.5c0.7,0,1.2-0.5,1.2-1.2v-1.1l1.1-0.6
		c0.1,0.6,0.1,1.3,0.1,2.1c0,0.8-0.1,1.5-0.2,2.3c-0.5-0.3-1.7-0.7-2.7,0.9c-1.5,2.1-2.3,0-3.8,0v0c0,0,0,0,0,0c0,0,0,0,0,0v0
		c-1.5,0-2.4,2.1-3.8,0C59.1,15.9,58,16.3,57.4,16.6z M65.8,20c0,0.6-0.8,1.1-1.9,1.1c-1,0-1.9-0.5-1.9-1.1c0-0.6,0.8-1.1,1.9-1.1
		C65,19,65.8,19.4,65.8,20z M59.5,23.3c0.3-0.4,0.4-0.8,0.5-1.2c1.2,0.9,2.6,1.4,4,1.4c1.3,0,2.6-0.4,3.7-1.2c0.1,0.3,0.2,0.6,0.5,1
		c0.4,0.6,0.9,1.1,1.6,1.4L64,27.2l-5.7-2.7C58.8,24.2,59.2,23.8,59.5,23.3z M58,25.2l4.7,2.2l-6,0.4L58,25.2z M64,31.1l-2-3.1h4
		L64,31.1z M65.5,27.4l4.2-1.8l1.5,2.3L65.5,27.4z"/>
</g>
<g id="Ebene_2">
	<path d="M82.2-6.3c0-0.1,0-1.4-1-2.9c-1.5-2.5-4.3-3.5-6.4-3.9c-2.8-0.5-3.8-1.8-4.1-2.8c0-0.1-0.1-0.1-0.1-0.2
		c0.3-0.3,0.6-0.6,0.9-0.9c1.3-1.6,2.1-3.8,2.4-6.4c0.3-3.1-0.3-5.6-1.7-7.2c-1.3-1.4-3.2-2.2-5.8-2.2c-2.5,0-4.4,0.7-5.7,2.2
		c-1.5,1.6-2.1,4.1-1.8,7.2c0.3,3,1.3,5.4,2.9,7c-0.1,0.1-0.1,0.1-0.1,0.2c-0.3,1.6-1.7,2.7-4.1,3.1c-2.1,0.4-4.9,1.4-6.5,3.9
		c-1,1.5-1,2.9-1,2.9c0,0.2,0.1,0.3,0.2,0.3c0,0,0,0,0,0l0.1,0l0,0c0,0,0,0,0,0c0,0,0,0,0,0l31.2,0c0,0,0.1,0,0.1,0c0,0,0,0,0,0
		c0,0,0.1,0,0.1,0l0.1,0c0,0,0,0,0,0C82.1-6,82.2-6.1,82.2-6.3z M60.8-26.6c0-0.7,0-2.2,0.1-3.1c0.1-0.2,0.2-0.3,0.4-0.4
		c1.2-1.3,2.9-1.9,5.2-1.9c2.3,0,4.1,0.6,5.3,1.9c0.2,0.2,0.4,0.4,0.5,0.7c0,0.8,0.1,2.1,0.1,2.8c0,0.4,0.2,0.7,0.5,0.8l-1.8,0.7
		c0,0-0.1,0-0.1,0.1c-0.4-0.5-1-0.9-1.7-0.9c-0.8,0-1.4,0.4-1.8,1c0,0,0,0-0.1,0h-1.6c0,0,0,0,0,0c-0.4-0.6-1-1-1.8-1
		c-0.7,0-1.3,0.3-1.7,0.9c0,0-0.1,0-0.1,0l-1.7-0.6C60.5-25.9,60.8-26.1,60.8-26.6z M70.5-23.8c0,0.8-0.6,1.4-1.4,1.4
		c-0.8,0-1.4-0.6-1.4-1.4c0-0.8,0.6-1.4,1.4-1.4C69.9-25.2,70.5-24.6,70.5-23.8z M65.2-23.8c0,0.8-0.6,1.4-1.4,1.4
		c-0.8,0-1.4-0.6-1.4-1.4c0-0.8,0.6-1.4,1.4-1.4C64.5-25.2,65.2-24.6,65.2-23.8z M61.9-17.5c-1.2-1.5-2-3.6-2.2-6
		c-0.1-0.6-0.1-1.1-0.1-1.7l2.1,0.7c0,0,0,0,0,0c-0.1,0.2-0.1,0.4-0.1,0.6c0,1.2,1,2.1,2.1,2.1c1.2,0,2.1-1,2.1-2.1
		c0-0.2,0-0.3,0-0.4H67c0,0.1,0,0.3,0,0.4c0,1.2,1,2.1,2.1,2.1c1.2,0,2.1-1,2.1-2.1c0-0.2,0-0.4-0.1-0.7c0,0,0,0,0.1,0l2.1-0.8
		c0,0.6,0,1.1-0.1,1.7c-0.3,2.4-1,4.5-2.2,6c-1.2,1.5-2.8,2.3-4.6,2.3C64.7-15.1,63.1-15.9,61.9-17.5z M66.2-9.5
		c-3.1,0-5.6-2.5-6.4-3.4c1.2-0.5,2.4-1.4,2.7-3c1.1,1,2.5,1.5,4,1.5c1.4,0,2.6-0.4,3.7-1.2c0.3,0.8,0.9,1.8,2.4,2.6
		C71.9-12.3,69.7-9.5,66.2-9.5z"/>
	<g>
		<polygon points="108.6,-11 104.4,-11 102.8,-9.6 110.2,-9.6 		"/>
		<path d="M121.3,0.1c-1.5-2.4-4.3-3.4-6.4-3.7c-2.8-0.5-3.8-1.8-4.1-2.7c0-0.1-0.1-0.2-0.2-0.2c0.3-0.3,0.5-0.5,0.8-0.9
			c1.2-1.5,2-3.7,2.3-6.1c0-0.1,0-0.2,0-0.4c0.3-0.3,1.1-1.3,1.1-2c0-0.9-1-1-1-1s1-1.3,0.7-2.2c-0.3-0.8-1.4-0.5-1.7-0.4
			c0,0,0,0,0,0c0.3-0.3,1.3-1.8,0.1-2.8c-0.2-0.2-0.5-0.3-0.8-0.4c0.1-0.6,0-1-0.3-1.3c-1.5-1.4-3.3,1-3.3,1s-1.6-2.2-4.3-1.2
			c-2.5,0.9-2.3,2.7-2.3,3.1c0,0,0,0,0,0c-0.2-0.1-1.3-0.8-2.4,0.3c-1,1-0.2,3.1,0,3.7c0,0.1,0,0.1,0,0.2c-0.3,0-1-0.1-1,0.7
			c0,0.7,0.5,1.6,0.8,2.1c0,0.2,0,0.5,0.1,0.7c0.3,2.9,1.3,5.2,2.8,6.7c-0.1,0-0.1,0.1-0.1,0.2c-0.2,1.1-1.1,2.5-4.1,3
			c-2.1,0.4-4.9,1.3-6.5,3.7c-1,1.5-1,2.8-1,2.8c0,0.2,0.1,0.3,0.3,0.4c0,0,0,0,0,0c0.2,0,0.3-0.1,0.3-0.3c0,0,0-0.4,0.2-0.9H96v1.3
			h2.7V2.1h3.2v1.3h2.7V2.1h3.3v1.3h2.7V2.1h3v1.3h2.7V2.1h5c0.1,0.5,0.1,0.9,0.1,0.9c0,0.2,0.2,0.3,0.3,0.3c0,0,0,0,0,0
			c0.2,0,0.3-0.2,0.3-0.3C122.2,2.9,122.2,1.6,121.3,0.1z M96,0.2h-3.9c0.8-1,1.8-1.8,3.1-2.3H96V0.2z M99.9-13.6
			c-0.3-2.8,0.3-5,1.5-6.4c0.7-0.8,1.6-1.3,2.8-1.6c0.4,0.9,1.5,3.3,3.4,3.3c1.4,0,2.7-1,3.4-2.2c0.2,0.1,0.3,0.3,0.5,0.4
			c1.2,1.4,1.7,3.6,1.5,6.4c-0.2,2.3-1,4.3-2.1,5.8c-1.2,1.5-2.7,2.2-4.4,2.2c-1.7,0-3.2-0.8-4.4-2.3
			C100.9-9.3,100.2-11.3,99.9-13.6z M101.9,0.2h-3.2v-1.3l3.2,0.9V0.2z M98.2-2l2.9-2.1l4,4L98.2-2z M106.3,0.2l-4.7-4.7
			c0.5-0.5,0.8-1.1,1-1.8c1.1,0.9,2.5,1.5,3.9,1.5c1.4,0,2.6-0.4,3.7-1.2c0,0,0,0,0,0c0.1,0.5,0.4,1,0.9,1.6l-4.7,4.7H106.3z
			 M113.7,0.2h-3v-0.4l3-0.8V0.2z M107.6-0.1l4-4l2.9,2.1L107.6-0.1z M116.4,0.2v-2.3h1c1.3,0.6,2.4,1.3,3.1,2.3H116.4z"/>
	</g>
	<path d="M-61.5-27.4c2.2,0,4.3,0.9,5.7,1.6c-1.3-0.4-3.2-0.7-5.4-0.7c-2.5,0-4.5,0.4-5.8,0.8C-65.7-26.5-63.7-27.4-61.5-27.4z
		 M-66.7-30.6c0.1-0.5,0.3-0.9,0.5-1.3c-0.4,0.3-0.7,0.7-1,1.2c-1.3,2.2-1.5,3.9-1.5,4.8c0.4-0.3,0.9-0.7,1.6-1
		C-67.1-27.4-67.2-28.8-66.7-30.6z M-55.3-26.7C-55.3-26.7-55.3-26.7-55.3-26.7c0.6,0.3,1.1,0.6,1.4,0.9c0,0,0.1,0,0.1,0.1
		c0-0.2-0.1-0.5-0.1-0.7c-0.1-1-0.4-2.4-1.5-4.2c-0.2-0.3-0.4-0.6-0.6-0.8c0.1,0.3,0.2,0.5,0.3,0.8C-55.1-28.4-55.3-26.8-55.3-26.7z
		 M-56.3-27.3c0-0.6,0-1.7-0.4-3.1c-0.6-2.2-2-2.9-3-3.2c-0.8-0.1-1.4-0.1-1.6-0.1c-0.1,0-0.5,0-1.1,0c-0.9,0.2-2.6,0.8-3.3,3.2
		C-66-29.1-66-28-66-27.4c1.3-0.6,2.8-1.1,4.5-1.1C-59.5-28.5-57.7-27.9-56.3-27.3z M-56.3-6.6c-1.3-0.5-3-0.8-4.9-0.8
		s-3.6,0.3-4.9,0.8c-1.1,0.5-1.7,1-1.8,1.6l13.4,0C-54.6-5.6-55.3-6.2-56.3-6.6z M-45.7-5.1C-45.6-5-45.6-5-45.7-5.1L-45.7-5.1
		C-45.8-5-45.8-5-45.8-5c0,0,0,0,0,0c0,0-0.1,0-0.1,0l-7.5,0c0-1-0.9-1.9-2.4-2.6c-1.4-0.6-3.3-0.9-5.3-0.9c-2,0-3.9,0.3-5.3,0.9
		C-68.1-6.9-68.9-6-69-5l-8.2,0c0,0,0,0,0,0c0,0,0,0,0,0l0,0l-0.1,0c0,0,0,0,0,0c-0.1-0.1-0.2-0.2-0.2-0.3c0-0.1,0.1-1.4,1-2.9
		c1.6-2.5,4.4-3.5,6.5-3.8c3-0.6,3.9-2,4.1-3.1c0-0.1,0.1-0.1,0.1-0.2c-1-1-1.8-2.4-2.3-4.1l-0.7,0.3l0.3-1.9l-0.9-0.3
		c0,0,0.7-1.8,0.6-2.7l0,0.1c0-0.1,0-0.2,0-0.4c0,0,0.1,0,0.1-0.1c0,0,0.2-0.2,0.6-0.5c-0.1,0.7,0,1.5,0,2.3c0.2,2.4,1,4.6,2.2,6.1
		c0.1,0.1,0.1,0.2,0.2,0.2c0.2,0,0.3,0,0.6-0.1c1.2-0.3-0.5-2.7,3.8-2.7v0c0,0,0,0,0,0c0,0,0,0,0,0v0c4.2,0,2.3,2.7,3.8,2.7
		c0.2,0,0.4,0,0.6,0c0,0,0-0.1,0.1-0.1c1.2-1.5,2-3.7,2.2-6.1c0.1-0.8,0.1-1.5,0.1-2.2c0.3,0.2,0.5,0.4,0.5,0.4
		c0.1,0,0.1,0.1,0.2,0.1c0,0.1,0,0.3,0,0.4l0-0.1c-0.1,0.9,0.6,2.7,0.6,2.7l-0.9,0.3l0.3,1.9l-0.7-0.4c-0.4,1.3-1,2.5-1.7,3.4
		c-0.3,0.4-0.6,0.7-0.9,1c0.1,0,0.1,0.1,0.1,0.2c0.3,1,1.2,2.3,4.1,2.8c2.1,0.4,4.9,1.3,6.4,3.8c0.9,1.5,1,2.9,1,2.9
		C-45.5-5.3-45.6-5.1-45.7-5.1z M-63.5-17c0,0.6,1,1.1,2.2,1.1S-59-16.4-59-17s-1-1.1-2.2-1.1S-63.5-17.6-63.5-17z M-55.2-12.1
		c-1.5-0.7-2.1-1.7-2.3-2.6c-1.1,0.8-2.3,1.2-3.7,1.2c-1.5,0-2.8-0.5-4-1.5c-0.2,0.7-0.6,1.4-1.1,1.9c-0.4,0.4-1,0.8-1.6,1
		c0.9,0.7,3.3,2.5,6.4,2.5C-58-9.5-55.8-11.5-55.2-12.1z"/>
	<path d="M86.2-59.4c0-0.1,0-1.4-1-2.9c-1.5-2.5-4.3-3.5-6.4-3.8c-0.8-0.1-1.5-0.4-2-0.6l0-0.1l-0.1,0c-1.3-0.6-1.8-1.5-2-2.2
		c0-0.1-0.1-0.1-0.1-0.2c0.3-0.3,0.6-0.6,0.9-1c1.3-1.6,2.1-3.9,2.4-6.5c0.3-3.2-0.3-5.7-1.7-7.4c-1.3-1.4-3.2-2.1-5.7-2.1
		c-2.5,0-4.4,0.7-5.6,2.1c-1.5,1.6-2.1,4.2-1.8,7.4c0.3,3.1,1.4,5.6,3,7.2c-0.1,0-0.1,0.1-0.1,0.2c-0.2,1.1-1.1,2.6-4.1,3.1
		c-2.1,0.4-4.9,1.3-6.5,3.8c-1,1.5-1,2.9-1,2.9c0,0.2,0.1,0.3,0.2,0.3c0,0,0,0,0,0l0.1,0c0,0,0,0,0,0c0,0,0,0,0,0c0,0,0,0,0,0
		l31.2,0c0,0,0.1,0,0.1,0c0,0,0,0,0,0c0,0,0.1,0,0.1,0l0.1,0c0,0,0,0,0,0C86.1-59.1,86.2-59.2,86.2-59.4z M64.6-78.1
		c0-1.1,0-3.5,0.1-4.5c0.2-0.3,0.4-0.6,0.7-0.9c0.5-0.5,1-0.9,1.7-1.2c0.2,0.2,1.6,1.2,3.5,1.2c2,0,3.3-1,3.5-1.2
		c0.7,0.3,1.2,0.7,1.7,1.2c0.2,0.2,0.4,0.5,0.6,0.8c0,1,0.1,3.5,0.1,4.6c0,0,0,0,0,0L76-77.9c-0.2-0.4-0.6-0.7-1.1-0.7h-2.5
		c-0.4,0-0.7,0.2-0.9,0.4h-1.9c-0.2-0.2-0.5-0.4-0.9-0.4h-2.5c-0.5,0-1,0.3-1.1,0.7L64.6-78.1C64.6-78.1,64.6-78.1,64.6-78.1z
		 M71.9-77.5c0-0.2,0.2-0.3,0.5-0.3h2.5c0.3,0,0.5,0.2,0.5,0.3v1.1c0,0.2-0.2,0.3-0.5,0.3h-2.5c-0.3,0-0.5-0.2-0.5-0.3V-77.5z
		 M69.1-77.5v1.1c0,0.2-0.2,0.3-0.5,0.3h-2.5c-0.3,0-0.5-0.2-0.5-0.3v-1.1c0-0.2,0.2-0.3,0.5-0.3h2.5C68.9-77.8,69.1-77.7,69.1-77.5
		z M65.9-70.6c-1.2-1.5-2-3.7-2.2-6.1c0.3-0.1,0.6-0.3,0.7-0.6l0.5,0.3v0.7c0,0.6,0.5,1,1.2,1h2.5c0.7,0,1.2-0.5,1.2-1v-1h1.3v1
		c0,0.6,0.5,1,1.2,1h2.5c0.7,0,1.2-0.5,1.2-1v-0.7l0.4-0.2c0.2,0.3,0.5,0.5,0.7,0.6c-0.3,2.5-1,4.6-2.2,6.1
		c-0.6,0.8-1.3,1.4-2.1,1.8c0,0,0,0,0,0l-1.3-0.7l-2.5,0L68-68.8c0,0,0,0,0.1,0.1C67.3-69.1,66.5-69.7,65.9-70.6z M65.4-67
		c0.6-0.5,0.9-1.2,1.1-1.9c1.1,0.9,2.5,1.5,4,1.5c1.3,0,2.6-0.4,3.7-1.2c0.2,0.7,0.7,1.6,1.9,2.3l-5.6,2.6l-5.7-2.6
		C64.9-66.6,65.2-66.8,65.4-67z M63.6-63.8l0.7-2l4.3,2H63.6z M71-60.9c0,0.3-0.2,0.5-0.5,0.5S70-60.6,70-60.9v-2
		c0-0.3,0.2-0.5,0.5-0.5s0.5,0.2,0.5,0.5V-60.9z M72.1-63.8l4.3-2l0.7,2H72.1z"/>
	<path d="M183.7-59.2c-1.5-2.5-4.3-3.5-6.4-3.8c-2.8-0.5-3.8-1.8-4.1-2.8c0-0.1-0.1-0.1-0.1-0.2c0.3-0.3,0.6-0.6,0.9-1
		c0.5-0.7,1-1.5,1.4-2.4c0.2,0.2,0.4,0.3,0.7,0.3c0.6,0,1.1-0.5,1.1-1.1c0-0.6-0.5-1.1-1.1-1.1c0,0-0.1,0-0.1,0
		c0.2-0.7,0.3-1.5,0.4-2.2c0.3-3.2-0.3-5.7-1.7-7.4c-0.2-0.3-0.5-0.5-0.8-0.7c2.1-2,0.6-4.4-1.4-4.5c-2.3-0.1-3,2-3,2
		s-0.8-1.1-2.4-0.4s-1.6,1.8-1.6,1.8s-0.8-0.6-1.6,0c-0.5,0.4-0.3,0.9-0.1,1.3c-0.2,0.2-0.4,0.3-0.5,0.5c-1.5,1.6-2.1,4.2-1.8,7.4
		c0.1,0.8,0.2,1.5,0.4,2.3c-0.1,0-0.1,0-0.2,0c-0.6,0-1.1,0.5-1.1,1.1c0,0.6,0.5,1.1,1.1,1.1c0.3,0,0.6-0.1,0.8-0.3
		c0.5,1.3,1.2,2.3,2,3.2c-0.1,0-0.1,0.1-0.1,0.2c-0.2,1.1-1.1,2.6-4.1,3.1c-2.1,0.4-4.9,1.3-6.5,3.8c-1,1.5-1,2.9-1,2.9
		c0,0.2,0.1,0.4,0.3,0.4c0,0,0,0,0,0c0.2,0,0.3-0.1,0.4-0.3c0,0,0.1-1.2,0.9-2.6c1.2-1.8,3.2-3,5.9-3.5v4.2v2.2h7.9h1.4h7.7v-2.2
		l0-4.2c2.7,0.5,4.7,1.7,5.8,3.5c0.8,1.3,0.9,2.6,0.9,2.6c0,0.2,0.2,0.4,0.4,0.4c0,0,0,0,0,0c0.2,0,0.4-0.2,0.4-0.4
		C184.7-56.3,184.6-57.7,183.7-59.2z M163.8-80.4c0.2-0.2,0.3-0.3,0.5-0.5c0.9,0.6,3.6,2.2,7.5,0.5c0.6-0.2,1-0.5,1.4-0.8
		c0.3,0.2,0.6,0.5,0.9,0.8c1,1.1,1.6,2.8,1.6,4.9c0,0-0.1,0-0.1,0l-1.5,0.5c-0.3-0.6-1.2-0.5-2.3-0.5c-1.1,0-2.1,0.2-2.3,0.9h-1.2
		c-0.1-0.7-0.8-0.9-2.3-0.9c-1.1,0-2-0.1-2.3,0.5l-1.6-0.6C162.2-77.6,162.7-79.2,163.8-80.4z M162.2-73.6c0-0.4-0.1-0.7-0.1-1.1
		l1.6,0.6c0.1,1,0.8,2.4,1.9,2.4c1.2,0,2.4-1,2.7-2h1.2c0.2,1,1.5,2,2.7,2c1.2,0,1.8-1.4,1.9-2.4l1.6-0.6c0,0.4,0,0.8-0.1,1.1
		c-0.3,2.5-1,4.6-2.2,6.1c-1.2,1.6-2.8,2.4-4.6,2.4c-1.8,0-3.4-0.8-4.6-2.4C163.2-69,162.4-71.2,162.2-73.6z M174.2-60.4
		c-0.1,1.7-0.9,3.6-5.3,3.8c-4.4-0.2-5.4-2.1-5.5-3.8c0-0.7,0-2.4,0-3.1c0.2-0.1,0.4-0.3,0.5-0.4c0.6-0.5,0.9-1.2,1.1-1.9
		c1.1,0.9,2.5,1.5,4,1.5c1.3,0,2.6-0.4,3.7-1.2c0.2,0.7,0.7,1.5,1.6,2.1C174.2-62.7,174.2-61.1,174.2-60.4z"/>
	<path d="M132.4-93.9C132.4-93.9,132.4-93.8,132.4-93.9L132.4-93.9c-0.1,0.1-0.2,0.1-0.2,0.1c0,0,0,0,0,0c0,0-0.1,0-0.1,0l-4.8,0
		l1.4-6c1.1,0.6,2.2,1.5,3,2.7c0.9,1.5,1,2.9,1,2.9C132.5-94.1,132.5-94,132.4-93.9z M123.4-101.5l-1.6,7.2l-0.1,0.4l-20.7,0
		c0,0,0,0,0,0c0,0,0,0,0,0c0,0,0,0,0,0l-0.1,0c0,0,0,0,0,0c-0.1-0.1-0.2-0.2-0.2-0.3c0-0.1,0.1-1.4,1-2.9c1.6-2.5,4.4-3.5,6.5-3.8
		c3-0.6,3.9-2,4.1-3.1c0-0.1,0.1-0.1,0.1-0.2c-1.2-1.2-2.1-2.9-2.6-5c-0.2,0.2-0.5,0.3-0.9,0.3c-0.7,0-1.3-0.6-1.3-1.3
		c0-0.1,0-0.3,0.1-0.4c-0.6-0.2-1.1-0.8-1.1-1.6c0-0.4,0.1-0.7,0.3-1c-0.5-0.4-0.8-1-0.8-1.6c0-0.6,0.3-1.2,0.7-1.6
		c-0.3-0.3-0.4-0.8-0.4-1.2c0-1.1,0.9-2,2.2-2.2c0-0.1,0-0.1,0-0.2c0-1.1,0.9-2,2-2c0.2,0,0.4,0,0.5,0.1c0.2-1.3,1.1-2.4,2.2-2.4
		c0.4,0,0.8,0.1,1.1,0.4c0.5-1.2,1.4-2.1,2.5-2.1c1.1,0,2.1,0.9,2.5,2.2c0.4-0.3,0.8-0.5,1.2-0.5c1.1,0,2,1,2.2,2.4
		c0.2,0,0.4-0.1,0.5-0.1c1.1,0,2,0.9,2,2c0,0.1,0,0.1,0,0.2c0.8,0.1,1.4,0.5,1.8,1.1l-2.1,9.8c0,0-0.1,0-0.1,0c-0.4,0-0.8-0.2-1-0.5
		c-0.4,1.8-1.1,3.3-2,4.5c-0.3,0.4-0.6,0.7-0.9,1c0.1,0,0.1,0.1,0.1,0.2C121.3-103,121.9-102.1,123.4-101.5z M116.8-103
		c1.8,0,3.3-0.8,4.6-2.4c1.2-1.5,2-3.7,2.2-6.1c0.2-1.5,0.1-2.9-0.2-4c-0.9-0.4-1.6-1.2-1.6-2c0-0.3,0.1-0.6,0.2-0.8
		c-0.1-0.1-0.2-0.2-0.3-0.3c-0.3,0.2-0.7,0.4-1.1,0.4c-0.7,0-1.2-0.4-1.7-0.9c-0.5,0.8-1.3,1.3-2.1,1.3c-0.8,0-1.5-0.5-2-1.2
		c-0.4,0.5-1,0.8-1.6,0.8c-0.4,0-0.8-0.1-1.1-0.4c-0.1,0.1-0.2,0.2-0.3,0.3c0.1,0.3,0.2,0.6,0.2,0.9c0,0.9-0.7,1.8-1.8,2.1
		c-0.3,1.1-0.3,2.5-0.2,3.9c0.2,2.4,1,4.6,2.2,6.1C113.4-103.8,115-103,116.8-103z M122.8-101c-1.5-0.7-2.1-1.7-2.3-2.6
		c-1.1,0.8-2.3,1.2-3.7,1.2c-1.5,0-2.8-0.5-4-1.5c-0.2,0.7-0.6,1.4-1.1,1.9c-0.4,0.4-1,0.8-1.6,1c0.9,0.7,3.3,2.5,6.4,2.5
		C120-98.3,122.2-100.3,122.8-101z M129.3-107.5l-3.1,13.6l-0.7-0.1l0.4-1.9l-2-0.4l-0.6,2.4l-0.7-0.2l3.3-14.4l0,0l0.5-2.4l0.5-2.3
		l0-0.1l0.5-2.5l0.6-3l0,0c0,0,0.1-0.1,0.1-0.1c0,0,0,0,0,0c0,0,0-0.1,0.1-0.1c0,0,0,0,0,0c0,0,0,0,0.1-0.1c0,0,0,0,0,0
		c0,0,0,0,0.1-0.1c0,0,0,0,0,0c0,0,0,0,0.1-0.1c0,0,0,0,0,0c0,0,0,0,0.1-0.1c0,0,0,0,0,0c0,0,0.1-0.1,0.1-0.1c0,0,0,0,0,0
		c0,0,0,0,0.1,0c0,0,0,0,0,0c0,0,0,0,0.1,0c0,0,0,0,0,0c0,0,0,0,0.1,0c0,0,0,0,0,0c0,0,0,0,0.1,0c0,0,0,0,0,0c0,0,0,0,0.1,0
		c0,0,0,0,0,0c0,0,0.1,0,0.1,0c0,0,0,0,0,0c0,0,0.1,0,0.1,0c0,0,0,0,0,0c0,0,0,0,0.1,0c0,0,0,0,0,0c0,0,0,0,0.1,0c0,0,0,0,0.1,0
		c0,0,0,0,0,0c0,0,0.1,0,0.1,0c0,0,0,0,0,0c0,0,0,0,0.1,0c0,0,0,0,0,0c0,0,0.1,0,0.1,0c0,0,0,0,0,0c0,0,0.1,0,0.1,0c0,0,0,0,0,0
		c0,0,0,0,0.1,0c0,0,0,0,0,0c0,0,0.1,0,0.1,0c0,0,0,0,0,0c0,0,0,0,0.1,0c0,0,0,0,0,0c0,0,0,0,0.1,0c0,0,0,0,0,0c0,0,0,0,0.1,0
		c0,0,0,0,0,0c0,0,0,0,0.1,0c0,0,0,0,0,0c0,0,0,0,0.1,0c0,0,0,0,0,0c0,0,0,0,0.1,0c0,0,0,0,0,0c0,0,0,0,0.1,0.1c0,0,0,0,0,0
		c0,0,0,0,0.1,0.1c0,0,0,0,0,0c0,0,0,0,0,0c0,0,0,0,0,0c0,0,0,0,0.1,0.1c0,0,0,0,0,0c0,0,0,0,0,0c0,0,0,0,0,0c0,0,0,0,0,0.1
		c0,0,0,0,0,0c0,0,0,0,0,0.1c0,0,0,0,0,0c0,0,0,0,0,0.1c0,0,0,0,0,0c0,0,0,0.1,0,0.1c0,0,0,0,0,0c0,0,0,0,0,0.1c0,0,0,0,0,0
		c0,0,0,0.1,0,0.1c0,0,0,0,0,0c0,0,0,0,0,0.1c0,0,0,0,0,0c0,0,0,0,0,0.1c0,0,0,0,0,0c0,0,0,0.1,0,0.1c0,0,0,0,0,0c0,0,0,0,0,0.1
		c0,0,0,0,0,0c0,0,0,0.1,0,0.1c0,0,0,0,0,0c0,0,0,0.1,0,0.1c0,0,0,0,0,0c0,0,0,0.1,0,0.1c0,0,0,0,0,0c0,0,0,0.1,0,0.1c0,0,0,0,0,0
		c0,0,0,0.1,0,0.1c0,0,0,0,0,0c0,0,0,0.1,0,0.1c0,0,0,0,0,0c0,0,0,0.1,0,0.1c0,0,0,0,0,0c0,0,0,0.1,0,0.1c0,0,0,0,0,0
		c0,0,0,0.1,0,0.1c0,0,0,0,0,0c0,0,0,0.1,0,0.1c0,0,0,0,0,0c0,0,0,0.1,0,0.1c0,0,0,0,0,0c0,0,0,0.1,0,0.1c0,0,0,0,0,0
		c0,0,0,0.1,0,0.1c0,0,0,0,0,0c0,0,0,0.1-0.1,0.1c0,0,0,0,0,0c0,0,0,0.1-0.1,0.1c0,0,0,0,0,0c0,0,0,0.1-0.1,0.1c0,0,0,0,0,0
		c0,0,0,0.1-0.1,0.1c0,0,0,0,0,0c0,0-0.1,0.1-0.1,0.1c0,0,0,0,0,0c-0.3,0.3-0.4,0.6-0.4,0.9c-0.1,0.6,0.1,1.1,0.4,1.6
		c0.1,0.1,0.1,0.2,0.2,0.4c0,0,0,0.1,0.1,0.1c0.1,0.2,0.3,0.5,0.4,0.8c0,0,0,0.1,0,0.1c0.1,0.2,0.2,0.4,0.2,0.6c0,0.1,0,0.1,0.1,0.2
		c0,0.1,0,0.1,0.1,0.2c0,0,0,0.1,0,0.1c0,0.1,0,0.2,0,0.3c0,0.1,0,0.2,0,0.2c0,0.1,0,0.2,0,0.4c0,0.1,0,0.2-0.1,0.4c0,0,0,0.1,0,0.1
		c0,0,0,0,0,0c0,0,0,0.1,0,0.1c0,0,0,0,0,0c0,0,0,0,0,0.1c0,0,0,0,0,0c0,0,0,0,0,0.1c0,0,0,0,0,0c0,0,0,0,0,0.1c0,0,0,0,0,0
		c0,0,0,0,0,0.1c0,0,0,0,0,0c0,0,0,0,0,0.1c0,0,0,0,0,0c0,0,0,0,0,0c0,0,0,0,0,0c0,0,0,0,0,0c0,0,0,0,0,0c0,0,0,0,0,0c0,0,0,0,0,0
		c0,0,0,0-0.1,0c0,0,0,0,0,0c0,0,0,0-0.1,0c0,0,0,0,0,0c0,0,0,0-0.1,0c0,0,0,0,0,0c0,0,0,0-0.1,0c0,0,0,0-0.1,0c0,0,0,0-0.1,0
		c0,0,0,0-0.1,0c0,0,0,0-0.1,0c0,0,0,0-0.1,0c0,0,0,0-0.1,0c0,0,0,0-0.1,0c0,0,0,0-0.1,0c0,0,0,0-0.1,0c0,0,0,0-0.1,0c0,0,0,0-0.1,0
		c0,0,0,0-0.1,0c0,0,0,0-0.1,0c0,0,0,0-0.1,0c0,0,0,0-0.1,0c0,0,0,0-0.1,0c0,0,0,0-0.1,0c0,0,0,0-0.1,0c0,0,0,0-0.1,0c0,0,0,0-0.1,0
		c0,0,0,0-0.1,0c0,0,0,0-0.1,0c0,0,0,0-0.1,0c0,0,0,0-0.1,0c0,0,0,0,0,0c0,0,0,0-0.1,0c0,0,0,0,0,0c0,0,0,0-0.1,0c0,0,0,0,0,0
		c0,0,0,0-0.1,0c0,0,0,0,0,0c0,0,0,0,0,0c0,0,0,0,0,0c0,0,0,0,0,0C129.4-107.5,129.4-107.5,129.3-107.5
		C129.3-107.5,129.3-107.5,129.3-107.5z M127.2-108.2c0,0,0.1,0,0.1,0c0.2,0,0.5-0.2,0.5-0.4l2-9.4c0.1-0.3-0.1-0.6-0.4-0.6
		c-0.3-0.1-0.6,0.1-0.6,0.4l-2,9.4C126.7-108.5,126.9-108.2,127.2-108.2z M126.8-99.6l-2-0.4l-0.7,3l2,0.4L126.8-99.6z M127.6-103.4
		l-2-0.4l-0.7,3l2,0.4L127.6-103.4z M128.5-107.1l-2-0.4l-0.7,3l2,0.4L128.5-107.1z M129.3-108.3l1.1-5.1c0.1-0.3-0.1-0.6-0.4-0.6
		c-0.3-0.1-0.6,0.1-0.6,0.4l-1.1,5.1c-0.1,0.3,0.1,0.6,0.4,0.6c0,0,0.1,0,0.1,0C129.1-107.9,129.3-108.1,129.3-108.3z"/>
	<path d="M17.5-83c-0.4-1.7-1.4-3-3-4.1c-0.8-0.5-1.8-0.9-2.8-1.2c-1.1-0.4-2.1-0.8-2.6-1.3c-1.2-1.5-0.7-3.6-0.6-4.2
		c0.6-0.9,1.1-1.8,1.4-2.8c0.3,0.4,0.7,0.6,1.3,0.6c0.9,0,1.6-0.7,1.6-1.6c0-0.4-0.2-0.8-0.4-1.1c0.6-0.3,1.1-0.9,1.1-1.7
		c0-0.5-0.2-1-0.6-1.4c0.4-0.4,0.7-1,0.7-1.6c0-0.7-0.3-1.3-0.9-1.7c0.4-0.4,0.6-1,0.6-1.6c0-1.4-1.1-2.5-2.5-2.5
		c-0.1,0-0.3,0-0.4,0c0,0,0,0,0,0c0-1.6-1.3-2.9-2.9-2.9c-0.7,0-1.3,0.2-1.8,0.6c-0.6-0.7-1.6-1.2-2.7-1.2c-1.1,0-2,0.5-2.7,1.2
		c-0.5-0.4-1.1-0.6-1.8-0.6c-1.6,0-2.9,1.3-2.9,2.9c0,0,0,0,0,0c-0.1,0-0.3,0-0.4,0c-1.4,0-2.5,1.1-2.5,2.5c0,0.6,0.2,1.2,0.6,1.6
		c-0.5,0.4-0.9,1-0.9,1.7c0,0.6,0.3,1.2,0.7,1.6c-0.4,0.3-0.6,0.8-0.6,1.4c0,0.7,0.4,1.4,1.1,1.7c-0.3,0.3-0.4,0.7-0.4,1.1
		c0,0.9,0.7,1.6,1.6,1.6c0.5,0,1-0.3,1.3-0.7c0.3,1,0.8,1.9,1.3,2.7c0,0,0,0,0,0c0,0,0.8,2.6-0.6,4.3c-0.4,0.5-1.5,0.9-2.6,1.3
		c-1,0.4-2,0.7-2.8,1.2c-1.6,1.1-2.6,2.5-3,4.1c0,0.2,0.1,0.4,0.3,0.4c0,0,0.1,0,0.1,0l0,0h28.3c0,0,0,0,0,0c0,0,0,0,0,0
		c0,0,0.1,0,0.1,0C17.4-82.6,17.5-82.8,17.5-83z M7.4-101.6c-0.4-0.5-1-0.9-1.8-0.9c-0.8,0-1.4,0.4-1.8,1c0,0,0,0-0.1,0H2.1
		c0,0,0,0,0,0c-0.4-0.6-1.1-1-1.8-1c-0.7,0-1.4,0.3-1.7,0.9c0,0-0.1,0-0.1,0l-1.8-0.6c0.2-1.6,0.7-2.9,1.3-3.9
		c0.2,0,0.4,0.1,0.6,0.1c0.7,0,1.3-0.2,1.8-0.6c0.6,0.7,1.6,1.2,2.7,1.2c1.1,0,2-0.5,2.7-1.2c0.5,0.4,1.1,0.6,1.8,0.6
		c0.2,0,0.4,0,0.6-0.1c0,0,0,0,0,0.1c0.6,1,1.1,2.2,1.3,3.8l-1.8,0.6C7.5-101.6,7.5-101.6,7.4-101.6z M7.1-100.3
		c0,0.8-0.6,1.4-1.4,1.4s-1.4-0.6-1.4-1.4s0.6-1.4,1.4-1.4S7.1-101.1,7.1-100.3z M1.7-100.3c0,0.8-0.6,1.4-1.4,1.4s-1.4-0.6-1.4-1.4
		s0.6-1.4,1.4-1.4S1.7-101.1,1.7-100.3z M-3.7-104.4C-3.7-104.4-3.7-104.4-3.7-104.4C-3.7-104.4-3.7-104.4-3.7-104.4
		C-3.7-104.4-3.7-104.4-3.7-104.4z M-3.5-101.5l1.7,0.6c0,0,0,0,0,0c-0.1,0.2-0.1,0.4-0.1,0.6c0,1.2,1,2.2,2.2,2.2s2.2-1,2.2-2.2
		c0-0.2,0-0.3,0-0.4h1.2c0,0.1,0,0.3,0,0.4c0,1.2,1,2.2,2.2,2.2s2.2-1,2.2-2.2c0-0.2,0-0.5-0.1-0.7c0,0,0,0,0.1,0l1.7-0.6
		c0.1,0.7,0.1,1.5,0.1,2.3c0,2.2-0.8,3.9-1.6,5c-0.1,0-0.1,0.1-0.1,0.2c0,0,0,0,0,0c-0.2,0.3-0.5,0.6-0.7,0.9
		c-1.3,1.4-3,2.4-4.2,2.4c-2.3,0-6.6-3.6-6.6-8.4C-3.6-100.1-3.6-100.8-3.5-101.5z M3-83.3c-1.8,0-4.7-4.2-5.7-5.7
		c0,0,0.1-0.1,0.1-0.1c0.9-1.1,1.1-2.5,1-3.6c1.5,1.6,3.3,2.6,4.6,2.6c1.4,0,3.2-1,4.6-2.5c-0.1,1,0.1,2.4,1,3.5
		c0,0,0.1,0.1,0.1,0.1C7.7-87.5,4.8-83.3,3-83.3z"/>
	<path d="M176.3-14.2c-1.5-2.5-4.3-3.5-6.4-3.8c-3.2-0.6-4-2.3-4.2-3c0,0,0,0,0,0c0.2-0.2,0.5-0.5,0.7-0.7c0.6,0.7,1.7,1.4,1.7,1.4
		l-0.3-1.1l1.7,0.7c0,0-0.5-0.5-0.8-1.4c-0.4-1.1-0.5-2.1-0.4-2.9c0.4-1.1,0.7-2.3,0.8-3.6c0.3-3.2-0.3-5.7-1.7-7.4
		c-1.1-1.3-2.8-2-4.9-2.1c-0.4,0-0.8,0-1.2,0c-2.3,0.1-4,0.8-5.3,2.1c-1.5,1.6-2.1,4.2-1.8,7.4c0.1,1.1,0.3,2.2,0.6,3.1
		c0.1,0.9,0,2.1-0.4,3.4c-0.3,0.9-0.8,1.4-0.8,1.4l1.7-0.7l-0.3,1.1c0,0,1.2-0.8,1.7-1.5c0.2,0.2,0.4,0.4,0.6,0.6c0,0,0,0,0,0.1
		c-0.1,0.6-0.7,2.5-4.3,3.1c-2.1,0.4-4.9,1.3-6.5,3.8c-1,1.5-1,2.9-1,2.9c0,0.2,0.1,0.4,0.3,0.4c0,0,0,0,0,0c0.2,0,0.3-0.1,0.4-0.3
		c0,0,0.1-1.2,0.9-2.6c0.4-0.7,1-1.3,1.6-1.7l1,4.7l11.7,0l11.7,0l1-4.7c0.7,0.5,1.2,1.1,1.7,1.8c0.8,1.3,0.9,2.6,0.9,2.6
		c0,0.2,0.2,0.4,0.4,0.4c0,0,0,0,0,0c0.2,0,0.4-0.2,0.4-0.4C177.3-11.3,177.3-12.7,176.3-14.2z M154.9-32.1c0.6-0.7,2.9-0.2,5.2-0.6
		c2.6-0.4,2.5-2.6,2.5-2.6s1-0.5,2.4-0.2c2,0.5,2.9,2.2,3.2,3.3c0.1,0.6,0.2,1.2,0.2,1.8L167-30c0,0,0-0.1-0.1-0.1
		c-0.1-0.1-0.2-0.1-0.3-0.1h-4.3c-0.1,0-0.2,0-0.3,0.1c-0.1,0.1-0.1,0.2-0.1,0.2h-1c0-0.1,0-0.2-0.1-0.2c-0.1-0.1-0.2-0.1-0.3-0.1
		h-4.3c-0.1,0-0.2,0-0.3,0.1c0,0,0,0,0,0.1l-1.2-0.4C154.7-31.1,154.8-31.6,154.9-32.1z M166.3-29.6l-0.2,2h-3.1l-0.2-2H166.3z
		 M160.2-29.6l-0.2,2h-3.1l-0.2-2H160.2z M156.8-24.4c-0.4-0.9-1.1-1.1-1.4-1.1c-0.3-1-0.5-2-0.6-3.1c0-0.1,0-0.2,0-0.2l1.3,0.4
		l0.1,1.3c0,0.2,0.2,0.3,0.4,0.3h3.8c0.2,0,0.3-0.1,0.4-0.3l0.2-1.8h1.2l0.2,1.8c0,0.2,0.2,0.3,0.4,0.3h3.8c0.2,0,0.3-0.1,0.4-0.3
		l0.1-1.2l1.4-0.4c0,0.1,0,0.1,0,0.2c-0.1,1-0.3,1.9-0.6,2.8c-0.1,0.1-0.1,0.2-0.2,0.3c-0.4,0.1-0.9,0.3-1.3,1.1
		c-1.1,2.2-1.4,1.5-1.7,1.1c-0.5-0.6-1.6-1.3-3-1.3v0c0,0,0,0,0,0c0,0,0,0,0,0v0c-1.4,0-2.5,0.7-3,1.3
		C158.2-22.9,157.9-22.2,156.8-24.4z M163.7-22.6c0,0.6-1,1.1-2.2,1.1s-2.2-0.5-2.2-1.1c0-0.6,1-1.1,2.2-1.1S163.7-23.2,163.7-22.6z
		 M161.3-12.7l-6.4-5.2c2-0.8,2.6-2.1,2.8-2.8c1.1,0.8,2.4,1.3,3.8,1.3c1.3,0,2.5-0.4,3.6-1.2c0.3,0.7,0.9,1.8,2.6,2.6L161.3-12.7z"
		/>
	<path d="M167.2,106.2c-0.4-1.7-1.4-3-3-4.1c-0.8-0.5-1.8-0.9-2.8-1.2c-0.1,0-0.3-0.1-0.4-0.1l-1-12.3l0,0c-0.3-5.7-2.8-8.6-7.3-8.6
		c-2.5,0-4.5,1-5.7,2.8c-1,1.5-1.5,3.7-1.6,6.4l-1,11.6c-0.1,0.1-0.3,0.1-0.4,0.2c-1,0.4-2,0.7-2.8,1.2c-1.6,1.1-2.6,2.5-3,4.1
		c0,0.2,0.1,0.4,0.3,0.4c0,0,0.1,0,0.1,0c0,0,0,0,0,0l0,0h28.3c0,0,0,0,0,0c0,0,0,0,0,0c0,0,0.1,0,0.1,0
		C167.1,106.6,167.2,106.4,167.2,106.2z M146.3,87.1c0.3,0.9,1.3,1.9,4,1.9c6.3,0,7,2.6,7,2.6s1.7-1.4,2-3.9
		c0.1,0.7,0.1,1.4,0.1,2.2c0,2.2-0.8,3.9-1.6,5c-0.1,0-0.1,0.1-0.1,0.2c0,0,0,0,0,0c-0.2,0.3-0.5,0.6-0.7,0.9
		c-1.3,1.4-3,2.4-4.2,2.4c-2.3,0-6.6-3.6-6.6-8.4C146.1,88.9,146.1,87.9,146.3,87.1z M152.7,105.9c-4,0-6.9-3.3-7.9-4.6
		c1-0.4,1.8-0.7,2.3-1.3c0.9-1.1,1.1-2.5,1-3.6c1.5,1.6,3.3,2.6,4.6,2.6c1.4,0,3.2-1,4.6-2.5c-0.1,1,0.1,2.4,1,3.5
		c0.5,0.6,1.5,1,2.5,1.4C159.9,102.4,156.8,105.9,152.7,105.9z M150.3,95c0,0,0.7-0.6,1.5-0.8c0.3,0,0.5,0.2,0.9,0.2
		c0.3,0,0.6-0.2,0.9-0.2c0.9,0.1,1.5,0.8,1.5,0.8S154,96,152.7,96C151.4,96,150.3,95,150.3,95z M150.1,93.5c0-0.2,0.2-0.4,0.4-0.4
		c0.2,0,0.4,0.2,0.4,0.4s-0.2,0.4-0.4,0.4C150.3,93.9,150.1,93.7,150.1,93.5z"/>
	<path d="M127.5,59.9c-0.4-1.7-1.4-3-3-4.1c-0.8-0.5-1.8-0.9-2.8-1.2c-0.1,0-0.3-0.1-0.4-0.1l-1-12.3l0,0c-0.3-5.7-2.8-8.6-7.3-8.6
		c-2.5,0-4.5,1-5.7,2.8c-1,1.5-1.5,3.7-1.6,6.4l-1,11.6c-0.1,0.1-0.3,0.1-0.4,0.2c-1,0.4-2,0.7-2.8,1.2c-1.6,1.1-2.6,2.5-3,4.1
		c0,0.2,0.1,0.4,0.3,0.4c0,0,0.1,0,0.1,0c0.2,0,0.3-0.1,0.4-0.3c0.2-0.9,0.7-1.8,1.3-2.5l3.3,2.8h9.1h9.3l3.2-2.7
		c0.6,0.7,1,1.5,1.3,2.4c0,0.2,0.2,0.3,0.4,0.3c0,0,0.1,0,0.1,0C127.4,60.3,127.5,60.1,127.5,59.9z M106.7,40.1
		c0.5-1,1.3-2.2,2.8-2.8c0.9-0.3,2,1.2,3.4,1.2c1.4,0,2.5-1.5,3.4-1.1c2.2,0.9,3,3.3,3.3,4.3c0.1,0.6,0.1,1.3,0.1,1.9
		c0,2.2-0.8,3.9-1.6,5c-0.1,0-0.1,0.1-0.1,0.2c0,0,0,0,0,0c-0.2,0.3-0.5,0.6-0.7,0.9c-1.3,1.4-3,2.4-4.2,2.4c-2.3,0-6.6-3.6-6.6-8.4
		C106.4,42.3,106.5,41.1,106.7,40.1z M105.3,55c0.9-0.3,1.7-0.7,2.2-1.2c0.9-1.1,1.1-2.5,1-3.6c1.5,1.6,3.3,2.6,4.6,2.6
		c1.4,0,3.2-1,4.6-2.5c-0.1,1,0.1,2.4,1,3.5c0.5,0.5,1.3,0.9,2.3,1.3l-7.8,4.4L105.3,55z M113,49.4c-1.5,0-2.8-1.1-2.8-1.1
		s0.8-0.8,1.8-0.9c0.3,0,0.6,0.2,1,0.2c0.4,0,0.7-0.3,1-0.2c1,0.1,1.7,0.9,1.7,0.9S114.6,49.4,113,49.4z"/>
	<path d="M168.7,38.6c0-0.1,0-1.4-1-2.9c-1.5-2.5-4.3-3.5-6.4-3.8c-2.8-0.5-3.8-1.8-4.1-2.8c0-0.1-0.1-0.1-0.1-0.2
		c0.3-0.3,0.6-0.6,0.9-1c1.3-1.6,2.1-3.9,2.4-6.5c0.2-1.6,0.1-3-0.2-4.3V9.8c0-1.5-1.2-2.8-2.8-2.8c-0.9,0-1.8,0.5-2.3,1.2
		c-0.5-0.7-1.3-1.2-2.3-1.2c-0.9,0-1.7,0.4-2.2,1.1c-0.5-0.7-1.3-1.1-2.2-1.1c-1.5,0-2.8,1.2-2.8,2.8c0,0,0,0.1,0,0.1v7.2
		c-0.3,1.2-0.4,2.7-0.2,4.3c0.3,3.1,1.4,5.6,3,7.2c-0.1,0-0.1,0.1-0.1,0.2c-0.2,1.1-1.1,2.6-4.1,3.1c-2.1,0.4-4.9,1.3-6.5,3.8
		c-1,1.5-1,2.9-1,2.9c0,0.2,0.1,0.3,0.2,0.3c0,0,0,0,0,0l0.1,0c0,0,0,0,0,0c0,0,0,0,0,0c0,0,0,0,0,0l14.9,0c0-0.5,0.4-0.9,0.9-0.9
		c0.5,0,0.9,0.4,0.9,0.9l14.4,0c0,0,0.1,0,0.1,0c0,0,0,0,0,0c0,0,0.1,0,0.1,0l0.1,0c0,0,0,0,0,0C168.6,38.9,168.7,38.8,168.7,38.6z
		 M146.2,21.4c0.4-0.2,1-0.5,1-1.5c0-0.6,0-1.7,0-2.7h11.4c0,1,0,2,0,2.7c0,0.9,0.6,1.3,1,1.5c-0.3,2.4-1,4.5-2.2,6
		c-0.9,1.2-2,1.9-3.3,2.2l-0.5-1.9h-1.4l-0.5,1.9c-1.3-0.3-2.4-1.1-3.4-2.3C147.2,25.9,146.4,23.8,146.2,21.4z M152.9,37
		c-0.5,0-0.9-0.4-0.9-0.9s0.4-0.9,0.9-0.9s0.9,0.4,0.9,0.9S153.4,37,152.9,37z M152.6,34.5c-3.1,0-5.5-1.8-6.4-2.5
		c0.6-0.3,1.2-0.6,1.6-1c0.6-0.5,0.9-1.2,1.1-1.9c1.1,0.9,2.5,1.5,4,1.5c1.3,0,2.6-0.4,3.7-1.2c0.3,0.8,0.9,1.8,2.3,2.6
		C158.3,32.5,156.2,34.5,152.6,34.5z"/>
	<path d="M201.7,3.2h4.4l1.7,1.4h-7.7L201.7,3.2z M210,17.6l4.4,0v-1.5H210V17.6z M219.4,17.5C219.4,17.5,219.4,17.6,219.4,17.5
		L219.4,17.5c-0.1,0.1-0.2,0.1-0.2,0.1c0,0,0,0,0,0c0,0-0.1,0-0.1,0l-3.6,0v-2c0-0.3-0.2-0.5-0.5-0.5h-5.5c-0.3,0-0.5,0.2-0.5,0.5v2
		c0,0,0,0,0,0l-4.6,0v-3.6c0-0.3-0.2-0.5-0.5-0.5s-0.5,0.2-0.5,0.5v3.6l-7,0l0-0.1l1.3-1.2l-1.7-0.3l-0.8-1.6l-0.8,1.6l-1.7,0.3
		l1.3,1.2l0,0.1l-5.8,0c0,0,0,0,0,0c0,0,0,0,0,0c0,0,0,0,0,0l-0.1,0c0,0,0,0,0,0c-0.1-0.1-0.2-0.2-0.2-0.3c0-0.1,0.1-1.4,1-2.9
		c1.6-2.5,4.4-3.5,6.5-3.8c3-0.6,3.9-2,4.1-3.1c0-0.1,0.1-0.1,0.1-0.2c-1.6-1.6-2.7-4.1-3-7.2c-0.1-1.6-0.1-3,0.2-4.2
		c-0.2-0.2-0.3-0.4-0.3-0.7l0.6-5c0-0.5,0.4-0.8,0.9-0.8H210c0.5,0,0.9,0.4,0.9,0.8l0.6,5c0,0.3-0.1,0.5-0.4,0.7
		c0.3,1.2,0.3,2.6,0.2,4.2c-0.3,2.6-1.1,4.9-2.4,6.5c-0.3,0.4-0.6,0.7-0.9,1c0.1,0,0.1,0.1,0.1,0.2c0.3,1,1.2,2.3,4.1,2.8
		c2.1,0.4,4.9,1.3,6.4,3.8c0.9,1.5,1,2.9,1,2.9C219.5,17.3,219.5,17.5,219.4,17.5z M202.5-8.2c0,0.7,0.6,1.3,1.3,1.3
		s1.3-0.6,1.3-1.3s-0.6-1.3-1.3-1.3S202.5-8.9,202.5-8.2z M196.8-4.7h14l-0.1-1.2H197L196.8-4.7z M199.2,6c1.2,1.6,2.8,2.4,4.6,2.4
		c1.8,0,3.3-0.8,4.6-2.4c1.2-1.5,1.9-3.6,2.2-6c-0.4-0.1-1-0.5-1-1.5c0-0.6,0-1.7,0-2.7h-11.4c0,1,0,2,0,2.7c0,0.9-0.6,1.3-1,1.5
		C197.3,2.4,198,4.5,199.2,6z M202.9,13.3l-5.4-2.8l-3.4,2.4h5.6c0.2,0,0.4,0.2,0.4,0.4V15L202.9,13.3z M209.2,10.1
		c-1-0.7-1.5-1.5-1.7-2.2c-1.1,0.8-2.3,1.2-3.7,1.2c-1.5,0-2.8-0.5-4-1.5c-0.2,0.7-0.6,1.4-1.1,1.9c-0.2,0.2-0.4,0.3-0.6,0.5
		l5.6,2.9L209.2,10.1z M213.4,12.9l-3.4-2.4l-5.4,2.8l2.9,1.6v-1.7c0-0.2,0.2-0.4,0.4-0.4H213.4z"/>
	<path d="M220.8-71.1c0,0-0.3,1.5-2,1.6c-1.9,0.2-2.6-0.9-2.2-1.4c0.4-0.6,0.8,0.1,1.9,0.2C219.6-70.6,220.8-71.1,220.8-71.1z
		 M214.3-70.7c-1.1,0.1-2.3-0.4-2.3-0.4s0.3,1.5,2,1.6c1.9,0.2,2.6-0.9,2.2-1.4C215.8-71.5,215.4-70.8,214.3-70.7z M231.9-56.8
		C231.9-56.7,231.9-56.7,231.9-56.8L231.9-56.8c-0.1,0.1-0.2,0.1-0.2,0.1c0,0,0,0,0,0c0,0-0.1,0-0.1,0l-31.2,0c0,0,0,0,0,0
		c0,0,0,0,0,0c0,0,0,0,0,0l-0.1,0c0,0,0,0,0,0c-0.1-0.1-0.2-0.2-0.2-0.3c0-0.1,0.1-1.4,1-2.9c1.6-2.5,4.4-3.5,6.5-3.8
		c3-0.6,3.9-2,4.1-3.1c0-0.1,0.1-0.1,0.1-0.2c-1.6-1.6-2.7-4.1-3-7.2c-0.2-1.6-0.1-3.1,0.3-4.3h-1.6v-1.2h1.6v-5.5h14.5v5.5h1.6v1.2
		h-1.6c0.3,1.3,0.4,2.7,0.2,4.3c-0.3,2.6-1.1,4.9-2.4,6.5c-0.3,0.4-0.6,0.7-0.9,1c0.1,0,0.1,0.1,0.1,0.2c0.3,1,1.2,2.3,4.1,2.8
		c2.1,0.4,4.9,1.3,6.4,3.8c0.9,1.5,1,2.9,1,2.9C232.1-56.9,232-56.8,231.9-56.8z M222.9-78.7L222.9-78.7
		C222.9-78.6,222.9-78.7,222.9-78.7L222.9-78.7z M216.3-65.9c1.8,0,3.3-0.8,4.6-2.4c1.2-1.5,2-3.7,2.2-6.1c0-0.3,0.1-0.6,0.1-0.9
		c-0.4-0.1-1.1-0.4-1.1-1.2c0-0.5,0-1.3,0-2.1h-11.4c0,0.8,0,1.6,0,2.1c0,0.8-0.7,1.1-1.1,1.2c0,0.3,0,0.6,0.1,0.9
		c0.2,2.4,1,4.6,2.2,6.1C213-66.7,214.6-65.9,216.3-65.9z M214.6-61.5l-4.4-2.1l0,5.1l4.3-2.7C214.6-61.3,214.6-61.4,214.6-61.5z
		 M217.3-61c0-0.5-0.4-1-1-1c-0.5,0-1,0.4-1,1c0,0.5,0.4,1,1,1C216.8-60,217.3-60.4,217.3-61z M217.5-62.2l4.2-2.1
		c-1-0.7-1.5-1.5-1.7-2.2c-1.1,0.8-2.3,1.2-3.7,1.2c-1.5,0-2.8-0.5-4-1.5c-0.2,0.7-0.6,1.4-1.1,1.9c-0.2,0.2-0.4,0.4-0.6,0.5
		l4.4,2.1c0.3-0.4,0.8-0.6,1.3-0.6C216.7-62.7,217.2-62.5,217.5-62.2z M222-63.6l-4.1,2c0.1,0.2,0.1,0.3,0.1,0.5l4,2.5L222-63.6z"/>
	<g>
		<path d="M32-6.7c0-0.1,0-1.4-1-2.9c-1.5-2.5-4.3-3.5-6.4-3.8c-0.8-0.1-1.5-0.4-2-0.6l0-0.1l-0.1,0c-1.3-0.6-1.8-1.5-2-2.2
			c0-0.1-0.1-0.1-0.1-0.2c0.3-0.3,0.6-0.6,0.9-1c1.3-1.6,2.1-3.9,2.4-6.5c0-0.2,0-0.5,0.1-0.7c0,0,0-0.1,0-0.2c0,0,0-0.1,0-0.1
			c0.1-2.6-0.4-4.7-1.6-6.1c0.2-0.1,0.4-0.2,0.6-0.5c2-1.9-0.6-4-0.6-4s0.3,1.5-2,1c-2.6-0.5-4.7-2-8-0.2c-3.6,2-3.6,8-3.6,8
			s0,0,0,0c-0.1,0.8-0.1,1.7,0,2.7c0.3,3.1,1.4,5.6,3,7.2c-0.1,0-0.1,0.1-0.1,0.2c-0.2,1.1-1.1,2.6-4.1,3.1C5.4-13.1,2.6-12.1,1-9.6
			c-1,1.5-1,2.9-1,2.9c0,0.2,0.1,0.3,0.2,0.3c0,0,0,0,0,0l0.1,0c0,0,0,0,0,0c0,0,0,0,0,0c0,0,0,0,0,0l31.2,0c0,0,0.1,0,0.1,0
			c0,0,0,0,0,0c0,0,0.1,0,0.1,0l0.1,0c0,0,0,0,0,0C31.9-6.5,32-6.6,32-6.7z M10.1-25.2c0-1.2,0.3-3.9,0.3-4.8c0,0,0,0,0-0.1
			c0.6-0.8,1.2-1.5,1.9-1.6c1.7-0.3,2.5,1.5,3.9,1.5c1.4,0,2.1-2,4.2-1.5c0.2,0,0.4,0.2,0.6,0.4c0.1,0.1,0.2,0.2,0.4,0.4
			c0.2,0.3,0.4,0.5,0.6,0.8c0.1,0.8,0.3,3.6,0.3,4.8c0,0,0,0,0,0.1l-0.6,0c-0.2-0.5-0.6-0.8-1.1-0.8h-2.5c-0.4,0-0.7,0.2-0.9,0.4
			h-1.9c-0.2-0.2-0.5-0.4-0.9-0.4h-2.5c-0.5,0-1,0.3-1.1,0.8L10.1-25.2C10.1-25.2,10.1-25.2,10.1-25.2z M21.2-24.7v1.3
			c0,0.2-0.2,0.4-0.5,0.4h-2.5c-0.3,0-0.5-0.2-0.5-0.4v-1.3c0-0.2,0.2-0.4,0.5-0.4h2.5C20.9-25.2,21.2-25,21.2-24.7z M14.9-24.7v1.3
			c0,0.2-0.2,0.4-0.5,0.4h-2.5c-0.3,0-0.5-0.2-0.5-0.4v-1.3c0-0.2,0.2-0.4,0.5-0.4h2.5C14.7-25.2,14.9-25,14.9-24.7z M10.1-21
			c-0.3-0.9-0.5-1.9-0.6-2.9c0.2-0.1,0.4-0.3,0.5-0.6l0.7,0v0.9c0,0.6,0.5,1.2,1.2,1.2h2.5c0.7,0,1.2-0.5,1.2-1.2v-1.3
			c0,0,0,0,0-0.1H17c0,0,0,0,0,0.1v1.3c0,0.6,0.5,1.2,1.2,1.2h2.5c0.7,0,1.2-0.5,1.2-1.2v-0.9l0.7,0c0.1,0.3,0.3,0.4,0.4,0.5
			c-0.1,1.1-0.3,2-0.6,2.9c-0.2,0.1-0.5,0.3-0.9,1.1c-1.1,2.2-1.9,1.5-2.2,1.1l-0.4,0.3c-0.2,1.2-0.9,1.8-2.5,1.9c0,0,0,0,0,0v0
			c0,0,0,0,0,0c0,0,0,0,0,0v0c0,0,0,0,0,0c-1.6-0.1-2.3-0.8-2.5-1.9l-0.4-0.3c-0.3,0.4-1.1,1.1-2.2-1.1C10.7-20.7,10.3-20.9,10.1-21
			z M11.2-14.4c0.6-0.5,0.9-1.2,1.1-1.9c1.1,0.9,2.5,1.5,4,1.5c1.4,0,2.6-0.4,3.7-1.2c0.2,0.7,0.7,1.6,1.9,2.3l-5.6,2.6l-5.7-2.6
			C10.7-14,11-14.2,11.2-14.4z M13.5-11.2H9.5l0.6-1.7l0.1-0.2l4.3,2H13.5z M16.8-8.3c0,0.3-0.2,0.5-0.5,0.5c-0.3,0-0.5-0.2-0.5-0.5
			v-2c0-0.3,0.2-0.5,0.5-0.5c0.3,0,0.5,0.2,0.5,0.5V-8.3z M18.5-11.2h-0.6l3.7-1.7l0.6-0.3l0.7,2H18.5z"/>
	</g>
	<g>
		<path fill="#3D3D3B" d="M10.1,10.4c0-0.5-0.1-1.9,0.4-3.7c0.1-0.5,0.3-0.9,0.5-1.3c-0.4,0.3-0.7,0.7-1,1.2
			c-1.3,2.2-1.5,3.8-1.5,4.7C8.9,11.2,9.5,10.8,10.1,10.4z"/>
		<path fill="#3D3D3B" d="M20.6,30.5c-1.3-0.5-2.9-0.8-4.7-0.8c-1.8,0-3.5,0.3-4.7,0.8c-1.1,0.4-1.7,1-1.8,1.6l6.5,0l6.5,0
			C22.3,31.5,21.6,30.9,20.6,30.5z"/>
		<polygon fill="#3D3D3B" points="19.1,20.1 19.1,20.1 19.1,20.1 		"/>
		<path fill="#3D3D3B" d="M32,31.6c0-0.1-0.1-1.4-1-2.9c-1.6-2.5-4.3-3.4-6.4-3.8c-3-0.5-3.9-2-4.1-3.1c0-0.1,0-0.2,0-0.2
			c1-1,1.7-2.3,2.2-4l0.7,0.3l-0.3-1.9l0.9-0.3c0,0-0.7-1.8-0.6-2.7l0,0.1c0-0.1,0-0.2,0-0.4c0,0-0.1,0-0.1-0.1c0,0-0.2-0.2-0.6-0.5
			c0,0.7,0,1.5,0,2.3c-0.1,1.4-0.5,2.7-0.9,3.9l0.1-0.2c0,0-0.8,1.8-1.6,2.1c-0.6,0.2-0.8,0-0.9-0.1c0,0,0-0.1,0-0.1l-1,0.1
			c0,0.6-1,1-2.2,1c-1.2,0-2.2-0.5-2.2-1l-1-0.1c0,0,0,0,0,0.1c0,0.1-0.2,0.4-0.9,0.2c-0.8-0.3-1.6-2-1.6-2.1
			c-0.4-1.1-0.7-2.4-0.9-3.7c-0.1-0.8-0.1-1.6,0-2.3c-0.4,0.3-0.6,0.5-0.6,0.5c0,0-0.1,0.1-0.1,0.1c0,0.1,0,0.2,0,0.4l0-0.1
			C8.7,14,8,15.7,8,15.7l0.9,0.3L8.6,18l0.7-0.3c0.5,1.6,1.2,3,2.2,4c0,0,0,0.2,0,0.2c-0.2,1.1-1.1,2.5-4.1,3.1
			c-2,0.4-4.8,1.3-6.4,3.8c-1,1.5-1,2.8-1,2.9c0,0.2,0.1,0.3,0.2,0.3c0,0,0,0,0,0h0.1c0,0,0,0,0,0c0,0,0,0,0,0c0,0,0,0,0,0l8.1,0
			c0-1,0.9-1.9,2.4-2.5c1.4-0.6,3.2-0.9,5.1-0.9c2,0,3.8,0.3,5.2,0.9c1.5,0.6,2.4,1.5,2.4,2.5l8.1,0c0,0,0,0,0,0c0,0,0,0,0,0
			c0,0,0,0,0,0h0.1c0,0,0,0,0,0C31.9,31.9,32,31.8,32,31.6z M16.2,27.5c-0.1,0,0,0-0.2,0c-0.1,0-0.1,0-0.2,0c-3,0-5.4-1.8-6.3-2.5
			c0.6-0.3,1.2-0.6,1.6-1c0.5-0.5,0.9-1.2,1.1-1.9c1.1,0.9,2.4,1.4,3.8,1.4c1.4,0,2.8-0.5,3.9-1.4c0.2,0.7,0.6,1.3,1.1,1.9
			c0.4,0.4,0.9,0.7,1.6,1C21.7,25.8,19.2,27.5,16.2,27.5z"/>
		<rect x="19.1" y="20.1" fill="#3D3D3B" width="0" height="0"/>
		<path fill="#3D3D3B" d="M9.5,12.1c1.5-0.4,3.5-0.7,6.4-0.7c2.8,0,4.9,0.3,6.4,0.7c-1.5-0.9-3.7-2-6.4-2
			C13.3,10.1,11,11.2,9.5,12.1z"/>
		<path fill="#3D3D3B" d="M15.8,8.9c0.2,0,0.1,0,0.2,0c1.7,0,3.2,0.5,4.5,1c0-0.6-0.1-1.6-0.4-2.9c-0.6-2.4-2.3-3-3.2-3.2
			c-0.2,0-0.7,0-1.1,0c-0.4,0-0.8,0-1.1,0C13.9,4,12.2,4.7,11.6,7c-0.3,1.2-0.4,2.3-0.4,2.9c1.3-0.6,2.8-1,4.5-1
			C15.7,8.9,15.8,8.9,15.8,8.9z"/>
		<path fill="#3D3D3B" d="M21.6,10.4c0.7,0.4,1.2,0.7,1.6,1c0-0.9-0.2-2.6-1.5-4.7c-0.3-0.5-0.6-0.9-1-1.2c0.2,0.4,0.4,0.8,0.5,1.3
			C21.7,8.6,21.6,10,21.6,10.4z"/>
	</g>
</g>
</svg>
