<?xml version="1.0" encoding="utf-8"?>
<!-- Generator: Adobe Illustrator 15.1.0, SVG Export Plug-In . SVG Version: 6.00 Build 0)  -->
<!DOCTYPE svg PUBLIC "-//W3C//DTD SVG 1.1//EN" "http://www.w3.org/Graphics/SVG/1.1/DTD/svg11.dtd">
<svg version="1.1" id="Ebene_1" xmlns="http://www.w3.org/2000/svg" xmlns:xlink="http://www.w3.org/1999/xlink" x="0px" y="0px"
	 width="332.571px" height="49.115px" viewBox="0 0 332.571 49.115" enable-background="new 0 0 332.571 49.115"
	 xml:space="preserve">
<rect x="-75.189" y="-80.844" display="none" fill="#808080" stroke="#000000" stroke-miterlimit="10" width="549" height="254"/>
<g>
	<path fill="#FFFFFF" d="M4.684,49.02c-0.099,0-0.156-0.053-0.172-0.156l-0.061-0.942c-0.264,0.36-0.574,0.646-0.928,0.858
		c-0.354,0.212-0.752,0.318-1.192,0.318c-0.733,0-1.305-0.254-1.715-0.763C0.205,47.827,0,47.064,0,46.049
		c0-0.436,0.057-0.843,0.171-1.221s0.282-0.706,0.504-0.984c0.223-0.277,0.495-0.496,0.817-0.656c0.322-0.16,0.694-0.24,1.114-0.24
		c0.405,0,0.755,0.074,1.051,0.225c0.297,0.15,0.553,0.369,0.77,0.657v-3.54h0.57v8.73H4.684z M2.493,48.635
		c0.396,0,0.755-0.102,1.076-0.306c0.32-0.204,0.607-0.487,0.859-0.853v-3.149c-0.232-0.34-0.488-0.58-0.767-0.72
		c-0.278-0.141-0.594-0.211-0.946-0.211s-0.661,0.064-0.925,0.192c-0.265,0.128-0.486,0.31-0.664,0.543
		c-0.178,0.234-0.313,0.515-0.403,0.841s-0.135,0.685-0.135,1.076c0,0.889,0.165,1.541,0.493,1.959
		C1.409,48.426,1.88,48.635,2.493,48.635z"/>
	<path fill="#FFFFFF" d="M9.252,42.953c0.336,0,0.647,0.059,0.933,0.174c0.286,0.116,0.534,0.285,0.744,0.508
		c0.21,0.221,0.374,0.494,0.492,0.818c0.118,0.324,0.177,0.695,0.177,1.115c0,0.089-0.013,0.148-0.039,0.181
		c-0.026,0.032-0.067,0.048-0.123,0.048H7.128v0.114c0,0.448,0.052,0.842,0.156,1.183c0.104,0.34,0.252,0.625,0.444,0.854
		c0.192,0.229,0.424,0.403,0.696,0.519C8.696,48.583,9,48.641,9.336,48.641c0.3,0,0.56-0.033,0.78-0.099
		c0.22-0.065,0.405-0.14,0.555-0.222s0.269-0.156,0.357-0.223c0.088-0.065,0.152-0.099,0.192-0.099c0.052,0,0.092,0.021,0.12,0.06
		l0.156,0.192c-0.096,0.12-0.223,0.231-0.381,0.336s-0.334,0.193-0.528,0.267c-0.194,0.074-0.402,0.134-0.624,0.178
		c-0.222,0.044-0.445,0.066-0.669,0.066c-0.408,0-0.78-0.072-1.116-0.213c-0.336-0.143-0.625-0.35-0.865-0.621
		c-0.241-0.272-0.427-0.605-0.558-1c-0.131-0.394-0.197-0.845-0.197-1.353c0-0.429,0.061-0.823,0.183-1.185
		c0.122-0.362,0.298-0.674,0.528-0.937c0.23-0.262,0.512-0.467,0.846-0.615C8.449,43.027,8.828,42.953,9.252,42.953z M9.261,43.379
		c-0.308,0-0.583,0.049-0.827,0.145s-0.454,0.233-0.632,0.414c-0.178,0.18-0.321,0.396-0.431,0.647s-0.183,0.534-0.219,0.847h3.93
		c0-0.32-0.044-0.607-0.131-0.861c-0.088-0.254-0.212-0.469-0.372-0.646c-0.16-0.176-0.352-0.311-0.575-0.405
		C9.78,43.426,9.532,43.379,9.261,43.379z"/>
	<path fill="#FFFFFF" d="M14.124,40.991c0,0.071-0.015,0.139-0.045,0.2c-0.03,0.063-0.069,0.117-0.117,0.166
		c-0.048,0.048-0.104,0.086-0.168,0.113c-0.064,0.028-0.132,0.043-0.204,0.043c-0.072,0-0.14-0.015-0.204-0.043
		c-0.064-0.027-0.12-0.065-0.168-0.113c-0.048-0.049-0.086-0.104-0.114-0.166c-0.028-0.062-0.042-0.129-0.042-0.2
		c0-0.072,0.014-0.142,0.042-0.207s0.066-0.123,0.114-0.171c0.048-0.049,0.104-0.086,0.168-0.114s0.132-0.042,0.204-0.042
		c0.072,0,0.14,0.014,0.204,0.042s0.12,0.065,0.168,0.114c0.048,0.048,0.087,0.105,0.117,0.171S14.124,40.919,14.124,40.991z
		 M13.872,43.049v5.971h-0.57v-5.971H13.872z"/>
	<path fill="#FFFFFF" d="M15.984,49.02v-5.971h0.312c0.104,0,0.164,0.051,0.18,0.15l0.054,0.9c0.272-0.345,0.589-0.621,0.951-0.832
		c0.362-0.209,0.765-0.314,1.209-0.314c0.328,0,0.617,0.052,0.867,0.156c0.25,0.104,0.457,0.254,0.621,0.449
		c0.164,0.196,0.288,0.433,0.372,0.709c0.084,0.275,0.126,0.588,0.126,0.936v3.816h-0.57v-3.816c0-0.561-0.128-0.999-0.384-1.316
		c-0.256-0.318-0.648-0.478-1.176-0.478c-0.392,0-0.756,0.101-1.092,0.303s-0.636,0.479-0.9,0.831v4.477H15.984z"/>
	<path fill="#FFFFFF" d="M24.725,42.953c0.336,0,0.647,0.059,0.934,0.174c0.286,0.116,0.534,0.285,0.744,0.508
		c0.21,0.221,0.374,0.494,0.491,0.818c0.118,0.324,0.178,0.695,0.178,1.115c0,0.089-0.014,0.148-0.039,0.181
		c-0.026,0.032-0.067,0.048-0.123,0.048h-4.308v0.114c0,0.448,0.052,0.842,0.156,1.183c0.104,0.34,0.252,0.625,0.444,0.854
		c0.192,0.229,0.424,0.403,0.696,0.519c0.272,0.116,0.576,0.174,0.912,0.174c0.301,0,0.561-0.033,0.78-0.099s0.405-0.14,0.555-0.222
		c0.15-0.082,0.27-0.156,0.357-0.223c0.088-0.065,0.152-0.099,0.192-0.099c0.052,0,0.092,0.021,0.119,0.06l0.156,0.192
		c-0.096,0.12-0.223,0.231-0.381,0.336s-0.334,0.193-0.528,0.267c-0.193,0.074-0.401,0.134-0.624,0.178
		c-0.222,0.044-0.444,0.066-0.669,0.066c-0.407,0-0.779-0.072-1.116-0.213c-0.336-0.143-0.625-0.35-0.865-0.621
		c-0.241-0.272-0.427-0.605-0.558-1c-0.131-0.394-0.197-0.845-0.197-1.353c0-0.429,0.061-0.823,0.183-1.185
		c0.122-0.362,0.298-0.674,0.528-0.937c0.23-0.262,0.512-0.467,0.846-0.615C23.922,43.027,24.301,42.953,24.725,42.953z
		 M24.734,43.379c-0.308,0-0.583,0.049-0.827,0.145s-0.454,0.233-0.632,0.414c-0.178,0.18-0.321,0.396-0.431,0.647
		s-0.183,0.534-0.219,0.847h3.93c0-0.32-0.044-0.607-0.132-0.861s-0.211-0.469-0.371-0.646c-0.16-0.176-0.352-0.311-0.575-0.405
		C25.253,43.426,25.005,43.379,24.734,43.379z"/>
	<path fill="#FFFFFF" d="M32.645,49.02h-1.62v-8.676h1.62V49.02z"/>
	<path fill="#FFFFFF" d="M42.299,44.682c0,0.635-0.106,1.219-0.318,1.752c-0.212,0.531-0.51,0.989-0.894,1.373
		c-0.384,0.385-0.846,0.683-1.386,0.895s-1.139,0.318-1.794,0.318h-3.313v-8.676h3.313c0.655,0,1.254,0.106,1.794,0.32
		s1.002,0.512,1.386,0.895c0.384,0.381,0.682,0.838,0.894,1.371C42.193,43.461,42.299,44.045,42.299,44.682z M40.649,44.682
		c0-0.477-0.063-0.904-0.191-1.281c-0.128-0.379-0.311-0.698-0.546-0.961c-0.236-0.262-0.523-0.463-0.861-0.603
		s-0.719-0.21-1.143-0.21h-1.687v6.107h1.687c0.424,0,0.805-0.069,1.143-0.209c0.338-0.141,0.625-0.342,0.861-0.604
		c0.235-0.262,0.418-0.582,0.546-0.96S40.649,45.157,40.649,44.682z"/>
	<path fill="#FFFFFF" d="M49.037,40.344v1.283h-3.846v2.406h3.03v1.242h-3.03v2.453h3.846v1.291h-5.472v-8.676H49.037z"/>
	<path fill="#FFFFFF" d="M55.907,40.344v1.283h-3.846v2.406h3.03v1.242h-3.03v2.453h3.846v1.291h-5.472v-8.676H55.907z"/>
</g>
<g>
	<path fill="#FFFFFF" d="M132.684,49.02c-0.099,0-0.156-0.053-0.172-0.156l-0.061-0.942c-0.264,0.36-0.574,0.646-0.928,0.858
		c-0.354,0.212-0.752,0.318-1.192,0.318c-0.733,0-1.305-0.254-1.715-0.763c-0.411-0.508-0.616-1.271-0.616-2.286
		c0-0.436,0.057-0.843,0.171-1.221s0.282-0.706,0.504-0.984c0.223-0.277,0.495-0.496,0.817-0.656c0.322-0.16,0.694-0.24,1.114-0.24
		c0.405,0,0.755,0.074,1.051,0.225c0.297,0.15,0.553,0.369,0.77,0.657v-3.54h0.57v8.73H132.684z M130.493,48.635
		c0.396,0,0.755-0.102,1.076-0.306c0.32-0.204,0.607-0.487,0.859-0.853v-3.149c-0.232-0.34-0.488-0.58-0.767-0.72
		c-0.278-0.141-0.594-0.211-0.946-0.211s-0.661,0.064-0.925,0.192c-0.265,0.128-0.486,0.31-0.664,0.543
		c-0.178,0.234-0.313,0.515-0.403,0.841s-0.135,0.685-0.135,1.076c0,0.889,0.165,1.541,0.493,1.959
		C129.409,48.426,129.88,48.635,130.493,48.635z"/>
	<path fill="#FFFFFF" d="M137.252,42.953c0.336,0,0.647,0.059,0.933,0.174c0.286,0.116,0.534,0.285,0.744,0.508
		c0.21,0.221,0.374,0.494,0.492,0.818c0.118,0.324,0.177,0.695,0.177,1.115c0,0.089-0.013,0.148-0.039,0.181
		c-0.026,0.032-0.067,0.048-0.123,0.048h-4.308v0.114c0,0.448,0.052,0.842,0.156,1.183c0.104,0.34,0.252,0.625,0.444,0.854
		c0.192,0.229,0.424,0.403,0.696,0.519c0.272,0.116,0.576,0.174,0.912,0.174c0.3,0,0.56-0.033,0.78-0.099
		c0.22-0.065,0.405-0.14,0.555-0.222s0.269-0.156,0.357-0.223c0.088-0.065,0.152-0.099,0.192-0.099c0.052,0,0.092,0.021,0.12,0.06
		l0.156,0.192c-0.096,0.12-0.223,0.231-0.381,0.336s-0.334,0.193-0.528,0.267c-0.194,0.074-0.402,0.134-0.624,0.178
		c-0.222,0.044-0.445,0.066-0.669,0.066c-0.408,0-0.78-0.072-1.116-0.213c-0.336-0.143-0.625-0.35-0.865-0.621
		c-0.241-0.272-0.427-0.605-0.558-1c-0.131-0.394-0.197-0.845-0.197-1.353c0-0.429,0.061-0.823,0.183-1.185
		c0.122-0.362,0.298-0.674,0.528-0.937c0.23-0.262,0.512-0.467,0.846-0.615C136.449,43.027,136.828,42.953,137.252,42.953z
		 M137.261,43.379c-0.308,0-0.583,0.049-0.827,0.145s-0.454,0.233-0.632,0.414c-0.178,0.18-0.321,0.396-0.431,0.647
		s-0.183,0.534-0.219,0.847h3.93c0-0.32-0.044-0.607-0.131-0.861c-0.088-0.254-0.212-0.469-0.372-0.646
		c-0.16-0.176-0.352-0.311-0.575-0.405C137.78,43.426,137.532,43.379,137.261,43.379z"/>
	<path fill="#FFFFFF" d="M142.124,40.991c0,0.071-0.015,0.139-0.045,0.2c-0.03,0.063-0.069,0.117-0.117,0.166
		c-0.048,0.048-0.104,0.086-0.168,0.113c-0.064,0.028-0.132,0.043-0.204,0.043c-0.072,0-0.14-0.015-0.204-0.043
		c-0.064-0.027-0.12-0.065-0.168-0.113c-0.048-0.049-0.086-0.104-0.114-0.166c-0.028-0.062-0.042-0.129-0.042-0.2
		c0-0.072,0.014-0.142,0.042-0.207s0.066-0.123,0.114-0.171c0.048-0.049,0.104-0.086,0.168-0.114s0.132-0.042,0.204-0.042
		c0.072,0,0.14,0.014,0.204,0.042s0.12,0.065,0.168,0.114c0.048,0.048,0.087,0.105,0.117,0.171S142.124,40.919,142.124,40.991z
		 M141.872,43.049v5.971h-0.57v-5.971H141.872z"/>
	<path fill="#FFFFFF" d="M143.984,49.02v-5.971h0.312c0.104,0,0.164,0.051,0.18,0.15l0.054,0.9c0.272-0.345,0.589-0.621,0.951-0.832
		c0.362-0.209,0.765-0.314,1.209-0.314c0.328,0,0.617,0.052,0.867,0.156c0.25,0.104,0.457,0.254,0.621,0.449
		c0.164,0.196,0.288,0.433,0.372,0.709c0.084,0.275,0.126,0.588,0.126,0.936v3.816h-0.57v-3.816c0-0.561-0.128-0.999-0.384-1.316
		c-0.256-0.318-0.648-0.478-1.176-0.478c-0.392,0-0.756,0.101-1.092,0.303s-0.636,0.479-0.9,0.831v4.477H143.984z"/>
	<path fill="#FFFFFF" d="M158.809,40.344v1.325H156.2v7.351h-1.614v-7.351h-2.622v-1.325H158.809z"/>
	<path fill="#FFFFFF" d="M165.307,40.344v1.283h-3.846v2.406h3.03v1.242h-3.03v2.453h3.846v1.291h-5.472v-8.676H165.307z"/>
	<path fill="#FFFFFF" d="M174.332,49.02h-1.248c-0.14,0-0.255-0.035-0.345-0.105s-0.155-0.156-0.195-0.262l-0.647-1.77h-3.595
		l-0.647,1.77c-0.032,0.093-0.096,0.177-0.189,0.253c-0.094,0.075-0.209,0.114-0.345,0.114h-1.254l3.408-8.676h1.649L174.332,49.02z
		 M168.715,45.743h2.767l-1.057-2.886c-0.048-0.129-0.101-0.279-0.159-0.453c-0.058-0.174-0.114-0.363-0.171-0.567
		c-0.056,0.204-0.11,0.394-0.165,0.57c-0.054,0.176-0.106,0.329-0.158,0.462L168.715,45.743z"/>
	<path fill="#FFFFFF" d="M179.77,45.818c0.058,0.138,0.115,0.277,0.171,0.416c0.057-0.144,0.114-0.285,0.174-0.426
		c0.061-0.14,0.124-0.273,0.192-0.401l2.568-4.806c0.031-0.061,0.064-0.108,0.099-0.145s0.072-0.063,0.114-0.078
		s0.089-0.025,0.141-0.029s0.114-0.006,0.187-0.006h1.218v8.676h-1.422v-5.604c0-0.104,0.003-0.218,0.009-0.342
		s0.015-0.25,0.027-0.378l-2.622,4.92c-0.061,0.111-0.139,0.199-0.234,0.261s-0.208,0.093-0.336,0.093h-0.222
		c-0.129,0-0.24-0.031-0.336-0.093c-0.097-0.062-0.175-0.149-0.234-0.261l-2.658-4.938c0.016,0.131,0.027,0.26,0.033,0.387
		c0.006,0.125,0.009,0.242,0.009,0.351v5.604h-1.422v-8.676h1.218c0.072,0,0.134,0.002,0.187,0.006
		c0.052,0.004,0.099,0.014,0.141,0.029s0.081,0.042,0.117,0.078s0.07,0.084,0.102,0.145l2.593,4.817
		C179.649,45.547,179.712,45.68,179.77,45.818z"/>
</g>
<g>
	<path fill="#FFFFFF" d="M250.87,43.049v3.816c0,0.561,0.129,0.999,0.386,1.316c0.257,0.318,0.647,0.478,1.174,0.478
		c0.39,0,0.753-0.099,1.09-0.298c0.337-0.197,0.64-0.473,0.909-0.824v-4.488h0.57v5.971h-0.314c-0.111,0-0.168-0.053-0.172-0.156
		l-0.055-0.889c-0.276,0.345-0.596,0.621-0.958,0.828c-0.362,0.209-0.767,0.313-1.211,0.313c-0.332,0-0.622-0.053-0.871-0.156
		s-0.454-0.254-0.618-0.449c-0.165-0.197-0.289-0.433-0.373-0.709c-0.084-0.275-0.127-0.588-0.127-0.936v-3.816H250.87z"/>
	<path fill="#FFFFFF" d="M256.942,49.02v-5.971h0.313c0.104,0,0.163,0.051,0.18,0.15l0.054,0.9c0.272-0.345,0.589-0.621,0.951-0.832
		c0.362-0.209,0.765-0.314,1.209-0.314c0.327,0,0.616,0.052,0.866,0.156c0.25,0.104,0.457,0.254,0.621,0.449
		c0.164,0.196,0.289,0.433,0.373,0.709c0.084,0.275,0.125,0.588,0.125,0.936v3.816h-0.569v-3.816c0-0.561-0.128-0.999-0.384-1.316
		c-0.256-0.318-0.648-0.478-1.176-0.478c-0.393,0-0.757,0.101-1.093,0.303s-0.636,0.479-0.899,0.831v4.477H256.942z"/>
	<path fill="#FFFFFF" d="M266.721,43.793c-0.027,0.057-0.072,0.084-0.132,0.084c-0.044,0-0.101-0.025-0.171-0.074
		c-0.07-0.051-0.162-0.106-0.275-0.168c-0.115-0.063-0.255-0.119-0.42-0.169c-0.167-0.05-0.369-0.075-0.609-0.075
		c-0.217,0-0.414,0.031-0.592,0.094c-0.178,0.062-0.33,0.145-0.455,0.248c-0.127,0.104-0.225,0.225-0.295,0.361
		c-0.069,0.139-0.104,0.283-0.104,0.434c0,0.188,0.048,0.344,0.144,0.467c0.096,0.125,0.223,0.23,0.379,0.318
		c0.155,0.087,0.332,0.163,0.53,0.227c0.198,0.064,0.401,0.128,0.609,0.191c0.208,0.064,0.411,0.136,0.608,0.213
		c0.198,0.078,0.375,0.176,0.531,0.291c0.156,0.117,0.282,0.259,0.379,0.427c0.096,0.168,0.143,0.372,0.143,0.612
		c0,0.26-0.047,0.502-0.141,0.726s-0.229,0.418-0.408,0.582c-0.178,0.164-0.396,0.294-0.656,0.39s-0.557,0.145-0.889,0.145
		c-0.42,0-0.781-0.067-1.086-0.201c-0.304-0.134-0.576-0.309-0.815-0.525l0.138-0.203c0.02-0.033,0.042-0.057,0.066-0.072
		c0.023-0.016,0.058-0.024,0.102-0.024c0.053,0,0.116,0.032,0.192,0.097c0.075,0.063,0.175,0.133,0.297,0.207
		s0.274,0.143,0.456,0.207c0.182,0.063,0.406,0.096,0.675,0.096c0.252,0,0.474-0.035,0.666-0.105s0.353-0.165,0.479-0.285
		c0.129-0.119,0.226-0.261,0.291-0.423c0.066-0.161,0.1-0.333,0.1-0.513c0-0.2-0.048-0.366-0.145-0.498
		c-0.096-0.132-0.222-0.244-0.377-0.336c-0.156-0.092-0.334-0.17-0.531-0.234c-0.198-0.063-0.402-0.128-0.612-0.191
		c-0.21-0.064-0.414-0.135-0.612-0.211c-0.197-0.075-0.375-0.172-0.531-0.287c-0.155-0.116-0.281-0.258-0.377-0.424
		c-0.097-0.166-0.145-0.373-0.145-0.621c0-0.211,0.046-0.416,0.139-0.611c0.092-0.195,0.223-0.368,0.393-0.516
		c0.17-0.148,0.377-0.267,0.621-0.354s0.518-0.132,0.822-0.132c0.363,0,0.687,0.053,0.969,0.158
		c0.281,0.105,0.541,0.267,0.777,0.484L266.721,43.793z"/>
	<path fill="#FFFFFF" d="M270.844,42.953c0.336,0,0.646,0.059,0.932,0.174c0.287,0.116,0.535,0.285,0.744,0.508
		c0.211,0.221,0.375,0.494,0.492,0.818c0.118,0.324,0.178,0.695,0.178,1.115c0,0.089-0.014,0.148-0.039,0.181
		c-0.026,0.032-0.067,0.048-0.123,0.048h-4.309v0.114c0,0.448,0.053,0.842,0.156,1.183c0.104,0.34,0.252,0.625,0.444,0.854
		s0.424,0.403,0.696,0.519c0.271,0.116,0.576,0.174,0.912,0.174c0.299,0,0.56-0.033,0.779-0.099c0.221-0.065,0.405-0.14,0.555-0.222
		c0.15-0.082,0.27-0.156,0.357-0.223c0.088-0.065,0.152-0.099,0.191-0.099c0.053,0,0.092,0.021,0.121,0.06l0.155,0.192
		c-0.096,0.12-0.223,0.231-0.381,0.336s-0.334,0.193-0.528,0.267c-0.193,0.074-0.402,0.134-0.623,0.178
		c-0.223,0.044-0.445,0.066-0.67,0.066c-0.408,0-0.779-0.072-1.115-0.213c-0.336-0.143-0.625-0.35-0.865-0.621
		c-0.24-0.272-0.427-0.605-0.559-1c-0.131-0.394-0.197-0.845-0.197-1.353c0-0.429,0.062-0.823,0.184-1.185
		c0.122-0.362,0.298-0.674,0.527-0.937c0.23-0.262,0.513-0.467,0.847-0.615C270.041,43.027,270.419,42.953,270.844,42.953z
		 M270.852,43.379c-0.307,0-0.583,0.049-0.826,0.145c-0.244,0.096-0.455,0.233-0.633,0.414c-0.178,0.18-0.32,0.396-0.431,0.647
		s-0.183,0.534-0.219,0.847h3.93c0-0.32-0.044-0.607-0.132-0.861s-0.211-0.469-0.371-0.646c-0.16-0.176-0.352-0.311-0.575-0.405
		C271.372,43.426,271.124,43.379,270.852,43.379z"/>
	<path fill="#FFFFFF" d="M274.725,49.02v-5.971h0.301c0.067,0,0.116,0.014,0.146,0.042s0.047,0.076,0.051,0.144l0.048,1.261
		c0.192-0.483,0.448-0.863,0.769-1.138c0.32-0.273,0.714-0.41,1.182-0.41c0.181,0,0.346,0.02,0.498,0.057
		c0.152,0.038,0.296,0.094,0.433,0.165l-0.078,0.396c-0.013,0.064-0.053,0.097-0.12,0.097c-0.024,0-0.059-0.009-0.103-0.024
		s-0.099-0.033-0.165-0.054c-0.065-0.021-0.146-0.038-0.242-0.054c-0.097-0.016-0.206-0.024-0.33-0.024
		c-0.452,0-0.823,0.14-1.113,0.42s-0.525,0.685-0.705,1.212v3.883H274.725z"/>
	<path fill="#FFFFFF" d="M286.36,41.921c-0.044,0.089-0.096,0.149-0.153,0.187c-0.058,0.035-0.127,0.054-0.207,0.054
		s-0.17-0.031-0.27-0.093c-0.101-0.063-0.219-0.131-0.354-0.207s-0.295-0.145-0.477-0.207c-0.183-0.063-0.397-0.094-0.646-0.094
		c-0.224,0-0.419,0.027-0.585,0.082c-0.166,0.053-0.306,0.129-0.42,0.225s-0.199,0.211-0.255,0.345
		c-0.057,0.134-0.084,0.281-0.084,0.44c0,0.205,0.057,0.375,0.171,0.511s0.265,0.252,0.453,0.349
		c0.188,0.096,0.401,0.182,0.642,0.258s0.485,0.156,0.735,0.242s0.495,0.187,0.734,0.301c0.24,0.113,0.454,0.258,0.643,0.432
		c0.188,0.174,0.339,0.387,0.453,0.639s0.171,0.559,0.171,0.918c0,0.393-0.067,0.76-0.201,1.102s-0.33,0.64-0.588,0.894
		c-0.258,0.255-0.573,0.454-0.945,0.601c-0.372,0.146-0.798,0.219-1.277,0.219c-0.276,0-0.549-0.027-0.816-0.081
		s-0.525-0.132-0.771-0.231c-0.245-0.1-0.476-0.22-0.689-0.359c-0.214-0.141-0.405-0.297-0.573-0.469l0.468-0.773
		c0.044-0.057,0.098-0.104,0.159-0.141c0.063-0.039,0.131-0.058,0.207-0.058c0.101,0,0.208,0.041,0.324,0.123
		s0.253,0.173,0.411,0.272c0.158,0.101,0.344,0.191,0.558,0.273s0.472,0.123,0.771,0.123c0.46,0,0.815-0.109,1.067-0.326
		c0.252-0.219,0.378-0.531,0.378-0.939c0-0.229-0.057-0.414-0.171-0.559c-0.113-0.144-0.265-0.265-0.453-0.363
		c-0.188-0.098-0.401-0.18-0.642-0.248s-0.484-0.143-0.732-0.223s-0.491-0.176-0.731-0.287c-0.24-0.112-0.454-0.259-0.642-0.438
		c-0.188-0.181-0.34-0.405-0.453-0.675c-0.114-0.271-0.171-0.604-0.171-1c0-0.315,0.063-0.623,0.188-0.924
		c0.126-0.299,0.31-0.565,0.552-0.797c0.242-0.232,0.539-0.418,0.892-0.559c0.352-0.141,0.754-0.21,1.206-0.21
		c0.512,0,0.983,0.08,1.416,0.239c0.432,0.16,0.8,0.385,1.104,0.673L286.36,41.921z"/>
	<path fill="#FFFFFF" d="M294.261,40.344v1.325h-2.61v7.351h-1.614v-7.351h-2.622v-1.325H294.261z"/>
	<path fill="#FFFFFF" d="M302.031,49.02h-1.248c-0.14,0-0.255-0.035-0.345-0.105s-0.155-0.156-0.195-0.262l-0.647-1.77H296
		l-0.647,1.77c-0.032,0.093-0.096,0.177-0.189,0.253c-0.094,0.075-0.209,0.114-0.345,0.114h-1.254l3.408-8.676h1.649L302.031,49.02z
		 M296.415,45.743h2.767l-1.057-2.886c-0.048-0.129-0.101-0.279-0.159-0.453c-0.058-0.174-0.114-0.363-0.171-0.567
		c-0.056,0.204-0.11,0.394-0.165,0.57c-0.054,0.176-0.106,0.329-0.158,0.462L296.415,45.743z"/>
	<path fill="#FFFFFF" d="M304.593,45.629v3.391h-1.614v-8.676h2.646c0.592,0,1.099,0.061,1.521,0.182
		c0.422,0.123,0.769,0.294,1.038,0.514c0.271,0.221,0.468,0.482,0.594,0.789c0.127,0.307,0.189,0.643,0.189,1.011
		c0,0.292-0.043,0.568-0.129,0.828c-0.086,0.261-0.21,0.496-0.372,0.708s-0.362,0.398-0.6,0.559c-0.238,0.16-0.51,0.287-0.813,0.383
		c0.204,0.117,0.38,0.283,0.528,0.498l2.172,3.205h-1.452c-0.14,0-0.259-0.028-0.357-0.084c-0.098-0.057-0.181-0.137-0.248-0.24
		l-1.824-2.778c-0.068-0.104-0.144-0.178-0.226-0.222c-0.082-0.045-0.203-0.066-0.362-0.066H304.593z M304.593,44.471h1.008
		c0.304,0,0.569-0.037,0.795-0.113c0.227-0.076,0.412-0.182,0.559-0.315c0.146-0.134,0.255-0.293,0.327-0.478
		c0.071-0.184,0.107-0.385,0.107-0.605c0-0.439-0.145-0.777-0.435-1.014s-0.733-0.354-1.329-0.354h-1.032V44.471z"/>
	<path fill="#FFFFFF" d="M316.563,40.344v1.325h-2.61v7.351h-1.614v-7.351h-2.622v-1.325H316.563z"/>
	<path fill="#FFFFFF" d="M321.081,47.717c0.312,0,0.591-0.052,0.837-0.156c0.246-0.104,0.454-0.25,0.624-0.438s0.3-0.416,0.39-0.684
		c0.09-0.269,0.135-0.568,0.135-0.9v-5.195h1.614v5.195c0,0.516-0.083,0.993-0.249,1.432c-0.166,0.438-0.404,0.815-0.717,1.133
		c-0.312,0.318-0.69,0.566-1.134,0.744c-0.444,0.178-0.944,0.268-1.5,0.268c-0.557,0-1.057-0.09-1.5-0.268
		c-0.444-0.178-0.821-0.426-1.131-0.744c-0.311-0.317-0.549-0.695-0.714-1.133c-0.166-0.438-0.249-0.916-0.249-1.432v-5.195h1.613
		v5.189c0,0.332,0.045,0.632,0.136,0.9c0.09,0.268,0.219,0.496,0.387,0.687s0.375,0.337,0.621,0.44
		C320.49,47.665,320.768,47.717,321.081,47.717z"/>
	<path fill="#FFFFFF" d="M327.993,45.965v3.055h-1.614v-8.676h2.826c0.58,0,1.082,0.067,1.506,0.203
		c0.424,0.137,0.774,0.326,1.05,0.57c0.276,0.244,0.48,0.536,0.612,0.876s0.198,0.712,0.198,1.116c0,0.42-0.07,0.805-0.21,1.154
		c-0.141,0.351-0.351,0.651-0.63,0.903c-0.28,0.252-0.63,0.448-1.05,0.588c-0.421,0.14-0.912,0.21-1.477,0.21H327.993z
		 M327.993,44.705h1.212c0.296,0,0.554-0.037,0.774-0.111c0.22-0.074,0.401-0.18,0.546-0.318c0.144-0.137,0.252-0.305,0.324-0.504
		c0.071-0.197,0.107-0.418,0.107-0.662c0-0.232-0.036-0.442-0.107-0.631c-0.072-0.188-0.181-0.348-0.324-0.479
		c-0.145-0.132-0.326-0.233-0.546-0.304c-0.221-0.069-0.479-0.104-0.774-0.104h-1.212V44.705z"/>
</g>
<g>
	<g>
		<g>
			<g>
				<path fill="#FFFFFF" d="M28.845,0c-5.034,0-9.118,4.083-9.118,9.118s4.083,9.118,9.118,9.118c5.034,0,9.118-4.083,9.118-9.118
					C37.962,4.066,33.878,0,28.845,0z"/>
			</g>
		</g>
	</g>
	<g>
		<g>
			<circle fill="#FFFFFF" cx="33.932" cy="20.682" r="1.989"/>
		</g>
	</g>
	<g>
		<g>
			<circle fill="#FFFFFF" cx="34.336" cy="25.963" r="1.461"/>
		</g>
	</g>
	<g>
		<g>
			<circle fill="#FFFFFF" cx="32.189" cy="30.38" r="1.056"/>
		</g>
	</g>
</g>
<g>
	<path fill="#FFFFFF" d="M171.93,13.452c-0.966,0.806-2.207,1.292-3.561,1.292s-2.595-0.486-3.561-1.292
		c-0.804,0.014-1.548,0.2-2.196,0.506c-0.304,1.25-0.945,2.37-1.831,3.247c3.181,0.198,5.696,2.37,5.696,5.016v1.223h5.356h4.535
		v-6.372C176.37,15.095,174.389,13.494,171.93,13.452z"/>
	<path fill="#FFFFFF" d="M168.37,13.744c2.518,0,4.566-2.049,4.566-4.567s-2.049-4.566-4.566-4.566s-4.566,2.048-4.566,4.566
		S165.852,13.744,168.37,13.744z"/>
	<path fill="#FFFFFF" d="M168.37,4.611c2.518,0,4.566,2.048,4.566,4.566s-2.049,4.567-4.566,4.567s-4.566-2.049-4.566-4.567
		S165.852,4.611,168.37,4.611z"/>
	<path fill="#FFFFFF" d="M151.174,17.205c-0.919-0.91-1.579-2.078-1.867-3.386c-0.57-0.222-1.203-0.356-1.877-0.368
		c-0.966,0.806-2.207,1.292-3.561,1.292s-2.595-0.486-3.561-1.292c-2.46,0.042-4.439,1.643-4.439,3.621v6.372h4.535h5.073v-1.223
		C145.478,19.575,147.994,17.403,151.174,17.205z"/>
	<path fill="#FFFFFF" d="M143.87,13.744c2.518,0,4.566-2.049,4.566-4.567s-2.049-4.566-4.566-4.566s-4.566,2.048-4.566,4.566
		S141.352,13.744,143.87,13.744z"/>
	<path fill="#FFFFFF" d="M143.87,4.611c2.518,0,4.566,2.048,4.566,4.566s-2.049,4.567-4.566,4.567s-4.566-2.049-4.566-4.567
		S141.352,4.611,143.87,4.611z"/>
	<path fill="#FFFFFF" d="M152.437,18.186h-0.79c-2.851,0-5.169,1.81-5.169,4.035v7.465h19v-7.465c0-2.225-2.318-4.035-5.169-4.035
		h-0.791c-1.034,0.63-2.243,1-3.54,1S153.471,18.816,152.437,18.186z"/>
	<path fill="#FFFFFF" d="M155.978,18.186c3.217,0,5.833-2.617,5.833-5.833c0-3.217-2.616-5.833-5.833-5.833
		s-5.833,2.617-5.833,5.833C150.145,15.569,152.761,18.186,155.978,18.186z"/>
	<path fill="#FFFFFF" d="M150.145,12.353c0-3.217,2.616-5.833,5.833-5.833s5.833,2.617,5.833,5.833c0,3.216-2.616,5.833-5.833,5.833
		S150.145,15.569,150.145,12.353z"/>
</g>
<g id="_x32_6_1_">
	<path fill="#FFFFFF" d="M306.936,3.254c-0.708-1.061-1.994-1.637-3.531-1.583c-1.248,0.044-2.667,0.73-3.743,1.38
		c0-0.003,0-0.005,0-0.008c0.001-0.027,0.004-0.054,0.004-0.081c0-1.278-1.036-2.314-2.314-2.314c-0.036,0-5.744-0.014-5.744-0.014
		v0.005c0,0-5.686,0.014-5.722,0.014c-1.278,0-2.314,1.037-2.314,2.315c0,0.027,0.003,0.054,0.004,0.081c0,0.002,0,0.005,0,0.008
		c-1.076-0.649-2.495-1.335-3.743-1.38c-1.537-0.055-2.824,0.522-3.532,1.583c-0.896,1.342-0.788,3.249,0.319,5.668
		c1.672,3.652,5.603,6.393,7.55,7.58c0.954,2.214,2.924,3.878,5.512,4.399c0.046,0.108,0.07,0.214,0.07,0.322c0,0.513,0,2.3,0,3.555
		h-1.556c-0.818,0-1.481,0.505-1.481,1.129v0.167h-0.533c-1.029,0-1.864,0.835-1.864,1.864v1.91c4.534,0,9.567-0.004,14.604-0.004
		v-1.911c0-1.029-0.835-1.864-1.864-1.864h-0.534v-0.167c0-0.624-0.663-1.129-1.48-1.129h-1.556c0-1.256,0-3.042,0-3.555
		c0-0.108,0.024-0.213,0.07-0.322c2.588-0.521,4.558-2.185,5.512-4.399c1.947-1.187,5.877-3.928,7.55-7.58
		C307.725,6.503,307.833,4.597,306.936,3.254z M278.504,8.064c-0.766-1.672-0.937-2.97-0.479-3.653
		c0.438-0.656,1.437-0.672,1.732-0.662c1.057,0.038,2.75,1.021,3.813,1.789c-0.003,2.768-0.033,7.984-0.031,8.056
		C281.752,12.301,279.555,10.36,278.504,8.064z M304.732,8.059c-1.049,2.29-3.247,4.232-5.034,5.527
		c0.002-0.071-0.029-5.284-0.031-8.053c1.063-0.768,2.756-1.751,3.813-1.789c0.296-0.011,1.295,0.006,1.732,0.661
		C305.667,5.089,305.498,6.387,304.732,8.059z"/>
</g>
<g>
	<g>
		
			<line fill="none" stroke="#FFFFFF" stroke-linecap="round" stroke-linejoin="round" x1="74.478" y1="46.02" x2="74.478" y2="46.02"/>
		
			<line fill="none" stroke="#FFFFFF" stroke-linecap="round" stroke-linejoin="round" stroke-dasharray="0,2.987" x1="77.464" y1="46.02" x2="105.841" y2="46.02"/>
		
			<line fill="none" stroke="#FFFFFF" stroke-linecap="round" stroke-linejoin="round" x1="107.334" y1="46.02" x2="107.334" y2="46.02"/>
		<g>
			<polygon fill="#FFFFFF" points="105.343,47.715 107.04,46.02 105.343,44.324 106.783,44.324 108.478,46.02 106.783,47.715 			"/>
		</g>
	</g>
</g>
<g>
	<g>
		
			<line fill="none" stroke="#FFFFFF" stroke-linecap="round" stroke-linejoin="round" x1="205.478" y1="46.02" x2="205.478" y2="46.02"/>
		
			<line fill="none" stroke="#FFFFFF" stroke-linecap="round" stroke-linejoin="round" stroke-dasharray="0,2.987" x1="208.464" y1="46.02" x2="236.841" y2="46.02"/>
		
			<line fill="none" stroke="#FFFFFF" stroke-linecap="round" stroke-linejoin="round" x1="238.334" y1="46.02" x2="238.334" y2="46.02"/>
		<g>
			<polygon fill="#FFFFFF" points="236.343,47.715 238.04,46.02 236.343,44.324 237.783,44.324 239.478,46.02 237.783,47.715 			"/>
		</g>
	</g>
</g>
</svg>
