<?xml version="1.0" encoding="utf-8"?>
<!-- Generator: Adobe Illustrator 15.1.0, SVG Export Plug-In . SVG Version: 6.00 Build 0)  -->
<!DOCTYPE svg PUBLIC "-//W3C//DTD SVG 1.1//EN" "http://www.w3.org/Graphics/SVG/1.1/DTD/svg11.dtd">
<svg version="1.1" id="Ebene_1" xmlns="http://www.w3.org/2000/svg" xmlns:xlink="http://www.w3.org/1999/xlink" x="0px" y="0px"
	 width="332.571px" height="49.115px" viewBox="0 0 332.571 49.115" enable-background="new 0 0 332.571 49.115"
	 xml:space="preserve">
<g>
	<path fill="#666666" d="M4.684,49.019c-0.099,0-0.156-0.051-0.172-0.155l-0.061-0.942c-0.264,0.36-0.574,0.646-0.928,0.857
		c-0.354,0.213-0.752,0.318-1.192,0.318c-0.733,0-1.305-0.254-1.715-0.762S0,47.065,0,46.049c0-0.436,0.057-0.843,0.171-1.221
		s0.282-0.706,0.504-0.983c0.223-0.279,0.495-0.498,0.817-0.658c0.322-0.159,0.694-0.239,1.114-0.239
		c0.405,0,0.755,0.075,1.051,0.225c0.297,0.15,0.553,0.369,0.77,0.657v-3.54h0.57v8.729H4.684z M2.493,48.636
		c0.396,0,0.755-0.103,1.076-0.307c0.32-0.204,0.607-0.488,0.859-0.852v-3.15c-0.232-0.34-0.488-0.58-0.767-0.721
		c-0.278-0.139-0.594-0.209-0.946-0.209s-0.661,0.063-0.925,0.191c-0.265,0.129-0.486,0.309-0.664,0.543s-0.313,0.514-0.403,0.84
		s-0.135,0.686-0.135,1.077c0,0.888,0.165,1.542,0.493,1.959C1.409,48.427,1.88,48.636,2.493,48.636z"/>
	<path fill="#666666" d="M9.252,42.953c0.336,0,0.647,0.058,0.933,0.174c0.286,0.116,0.534,0.285,0.744,0.507
		c0.21,0.223,0.374,0.495,0.492,0.819c0.118,0.323,0.177,0.696,0.177,1.116c0,0.088-0.013,0.148-0.039,0.18
		c-0.026,0.032-0.067,0.048-0.123,0.048H7.128v0.114c0,0.447,0.052,0.842,0.156,1.182s0.252,0.625,0.444,0.855
		c0.192,0.23,0.424,0.402,0.696,0.52C8.696,48.583,9,48.642,9.336,48.642c0.3,0,0.56-0.033,0.78-0.1
		c0.22-0.066,0.405-0.141,0.555-0.223c0.15-0.081,0.269-0.155,0.357-0.221c0.088-0.066,0.152-0.1,0.192-0.1
		c0.052,0,0.092,0.02,0.12,0.061l0.156,0.191c-0.096,0.12-0.223,0.232-0.381,0.336s-0.334,0.193-0.528,0.268
		c-0.194,0.074-0.402,0.133-0.624,0.177c-0.222,0.044-0.445,0.065-0.669,0.065c-0.408,0-0.78-0.07-1.116-0.213
		c-0.336-0.142-0.625-0.349-0.865-0.621c-0.241-0.271-0.427-0.604-0.558-0.998c-0.131-0.395-0.197-0.846-0.197-1.354
		c0-0.428,0.061-0.823,0.183-1.186c0.122-0.361,0.298-0.674,0.528-0.936s0.512-0.467,0.846-0.615
		C8.449,43.027,8.828,42.953,9.252,42.953z M9.261,43.379c-0.308,0-0.583,0.048-0.827,0.144c-0.244,0.097-0.454,0.234-0.632,0.414
		c-0.178,0.181-0.321,0.396-0.431,0.648s-0.183,0.534-0.219,0.846h3.93c0-0.32-0.044-0.606-0.131-0.861
		c-0.088-0.254-0.212-0.469-0.372-0.645s-0.352-0.311-0.575-0.404S9.532,43.379,9.261,43.379z"/>
	<path fill="#666666" d="M14.124,40.991c0,0.072-0.015,0.139-0.045,0.201c-0.03,0.062-0.069,0.117-0.117,0.164
		c-0.048,0.049-0.104,0.086-0.168,0.115c-0.064,0.027-0.132,0.041-0.204,0.041c-0.072,0-0.14-0.014-0.204-0.041
		c-0.064-0.029-0.12-0.066-0.168-0.115c-0.048-0.047-0.086-0.103-0.114-0.164c-0.028-0.063-0.042-0.129-0.042-0.201
		s0.014-0.141,0.042-0.207s0.066-0.123,0.114-0.171c0.048-0.048,0.104-0.087,0.168-0.114s0.132-0.042,0.204-0.042
		c0.072,0,0.14,0.015,0.204,0.042s0.12,0.066,0.168,0.114c0.048,0.048,0.087,0.104,0.117,0.171S14.124,40.919,14.124,40.991z
		 M13.872,43.049v5.97h-0.57v-5.97H13.872z"/>
	<path fill="#666666" d="M15.984,49.019v-5.97h0.312c0.104,0,0.164,0.05,0.18,0.15l0.054,0.899c0.272-0.344,0.589-0.621,0.951-0.83
		c0.362-0.211,0.765-0.315,1.209-0.315c0.328,0,0.617,0.052,0.867,0.155c0.25,0.104,0.457,0.255,0.621,0.451
		c0.164,0.195,0.288,0.432,0.372,0.707c0.084,0.276,0.126,0.588,0.126,0.937v3.815h-0.57v-3.815c0-0.56-0.128-0.999-0.384-1.317
		s-0.648-0.477-1.176-0.477c-0.392,0-0.756,0.102-1.092,0.303c-0.336,0.202-0.636,0.479-0.9,0.831v4.476H15.984z"/>
	<path fill="#666666" d="M24.725,42.953c0.336,0,0.647,0.058,0.934,0.174s0.534,0.285,0.744,0.507
		c0.21,0.223,0.374,0.495,0.491,0.819c0.118,0.323,0.178,0.696,0.178,1.116c0,0.088-0.014,0.148-0.039,0.18
		c-0.026,0.032-0.067,0.048-0.123,0.048h-4.308v0.114c0,0.447,0.052,0.842,0.156,1.182s0.252,0.625,0.444,0.855
		c0.192,0.23,0.424,0.402,0.696,0.52c0.272,0.115,0.576,0.174,0.912,0.174c0.301,0,0.561-0.033,0.78-0.1s0.405-0.141,0.555-0.223
		c0.15-0.081,0.27-0.155,0.357-0.221c0.088-0.066,0.152-0.1,0.192-0.1c0.052,0,0.092,0.02,0.119,0.061l0.156,0.191
		c-0.096,0.12-0.223,0.232-0.381,0.336s-0.334,0.193-0.528,0.268c-0.193,0.074-0.401,0.133-0.624,0.177
		c-0.222,0.044-0.444,0.065-0.669,0.065c-0.407,0-0.779-0.07-1.116-0.213c-0.336-0.142-0.625-0.349-0.865-0.621
		c-0.241-0.271-0.427-0.604-0.558-0.998c-0.131-0.395-0.197-0.846-0.197-1.354c0-0.428,0.061-0.823,0.183-1.186
		c0.122-0.361,0.298-0.674,0.528-0.936s0.512-0.467,0.846-0.615C23.922,43.027,24.301,42.953,24.725,42.953z M24.734,43.379
		c-0.308,0-0.583,0.048-0.827,0.144c-0.244,0.097-0.454,0.234-0.632,0.414c-0.178,0.181-0.321,0.396-0.431,0.648
		s-0.183,0.534-0.219,0.846h3.93c0-0.32-0.044-0.606-0.132-0.861c-0.088-0.254-0.211-0.469-0.371-0.645s-0.352-0.311-0.575-0.404
		S25.005,43.379,24.734,43.379z"/>
	<path fill="#666666" d="M32.645,49.019h-1.62v-8.676h1.62V49.019z"/>
	<path fill="#666666" d="M42.299,44.681c0,0.637-0.106,1.221-0.318,1.752c-0.212,0.532-0.51,0.99-0.894,1.375
		c-0.384,0.383-0.846,0.682-1.386,0.894s-1.139,0.317-1.794,0.317h-3.313v-8.676h3.313c0.655,0,1.254,0.107,1.794,0.321
		s1.002,0.513,1.386,0.894c0.384,0.383,0.682,0.84,0.894,1.371C42.193,43.461,42.299,44.045,42.299,44.681z M40.649,44.681
		c0-0.476-0.063-0.902-0.191-1.281c-0.128-0.377-0.311-0.697-0.546-0.959c-0.236-0.262-0.523-0.463-0.861-0.604
		c-0.338-0.14-0.719-0.21-1.143-0.21h-1.687v6.108h1.687c0.424,0,0.805-0.07,1.143-0.211c0.338-0.139,0.625-0.34,0.861-0.603
		c0.235-0.262,0.418-0.582,0.546-0.96S40.649,45.157,40.649,44.681z"/>
	<path fill="#666666" d="M49.037,40.343v1.284h-3.846v2.406h3.03v1.241h-3.03v2.455h3.846v1.289h-5.472v-8.676H49.037z"/>
	<path fill="#666666" d="M55.907,40.343v1.284h-3.846v2.406h3.03v1.241h-3.03v2.455h3.846v1.289h-5.472v-8.676H55.907z"/>
</g>
<g>
	<path fill="#666666" d="M132.684,49.019c-0.1,0-0.156-0.051-0.172-0.155l-0.061-0.942c-0.264,0.36-0.574,0.646-0.928,0.857
		c-0.355,0.213-0.752,0.318-1.193,0.318c-0.732,0-1.305-0.254-1.715-0.762S128,47.065,128,46.049c0-0.436,0.057-0.843,0.171-1.221
		s0.282-0.706,0.505-0.983c0.223-0.279,0.494-0.498,0.816-0.658c0.322-0.159,0.694-0.239,1.115-0.239
		c0.404,0,0.754,0.075,1.051,0.225c0.297,0.15,0.553,0.369,0.77,0.657v-3.54h0.57v8.729H132.684z M130.493,48.636
		c0.396,0,0.756-0.103,1.076-0.307s0.607-0.488,0.859-0.852v-3.15c-0.232-0.34-0.488-0.58-0.767-0.721
		c-0.278-0.139-0.594-0.209-0.946-0.209s-0.661,0.063-0.926,0.191c-0.264,0.129-0.485,0.309-0.664,0.543
		c-0.178,0.234-0.313,0.514-0.402,0.84s-0.135,0.686-0.135,1.077c0,0.888,0.164,1.542,0.492,1.959
		C129.409,48.427,129.879,48.636,130.493,48.636z"/>
	<path fill="#666666" d="M137.252,42.953c0.336,0,0.646,0.058,0.932,0.174c0.287,0.116,0.535,0.285,0.744,0.507
		c0.211,0.223,0.375,0.495,0.492,0.819c0.118,0.323,0.178,0.696,0.178,1.116c0,0.088-0.014,0.148-0.039,0.18
		c-0.026,0.032-0.067,0.048-0.123,0.048h-4.309v0.114c0,0.447,0.053,0.842,0.156,1.182s0.252,0.625,0.444,0.855
		s0.424,0.402,0.696,0.52c0.271,0.115,0.576,0.174,0.912,0.174c0.299,0,0.56-0.033,0.779-0.1c0.221-0.066,0.405-0.141,0.555-0.223
		c0.15-0.081,0.27-0.155,0.357-0.221c0.088-0.066,0.152-0.1,0.191-0.1c0.053,0,0.092,0.02,0.121,0.061l0.155,0.191
		c-0.096,0.12-0.223,0.232-0.381,0.336s-0.334,0.193-0.528,0.268c-0.193,0.074-0.402,0.133-0.623,0.177
		c-0.223,0.044-0.445,0.065-0.67,0.065c-0.408,0-0.779-0.07-1.115-0.213c-0.336-0.142-0.625-0.349-0.865-0.621
		c-0.24-0.271-0.427-0.604-0.559-0.998c-0.131-0.395-0.197-0.846-0.197-1.354c0-0.428,0.062-0.823,0.184-1.186
		c0.122-0.361,0.298-0.674,0.527-0.936c0.23-0.262,0.513-0.467,0.847-0.615C136.449,43.027,136.828,42.953,137.252,42.953z
		 M137.26,43.379c-0.307,0-0.583,0.048-0.826,0.144c-0.244,0.097-0.455,0.234-0.633,0.414c-0.178,0.181-0.32,0.396-0.431,0.648
		s-0.183,0.534-0.219,0.846h3.93c0-0.32-0.044-0.606-0.132-0.861c-0.088-0.254-0.211-0.469-0.371-0.645s-0.352-0.311-0.575-0.404
		S137.532,43.379,137.26,43.379z"/>
	<path fill="#666666" d="M142.124,40.991c0,0.072-0.016,0.139-0.045,0.201c-0.029,0.062-0.068,0.117-0.117,0.164
		c-0.048,0.049-0.104,0.086-0.168,0.115c-0.064,0.027-0.132,0.041-0.203,0.041c-0.072,0-0.141-0.014-0.205-0.041
		c-0.063-0.029-0.119-0.066-0.168-0.115c-0.048-0.047-0.086-0.103-0.113-0.164c-0.028-0.063-0.043-0.129-0.043-0.201
		s0.015-0.141,0.043-0.207c0.027-0.066,0.065-0.123,0.113-0.171c0.049-0.048,0.104-0.087,0.168-0.114
		c0.064-0.027,0.133-0.042,0.205-0.042c0.071,0,0.139,0.015,0.203,0.042s0.12,0.066,0.168,0.114
		c0.049,0.048,0.088,0.104,0.117,0.171S142.124,40.919,142.124,40.991z M141.872,43.049v5.97h-0.57v-5.97H141.872z"/>
	<path fill="#666666" d="M143.984,49.019v-5.97h0.312c0.104,0,0.164,0.05,0.18,0.15l0.055,0.899c0.271-0.344,0.589-0.621,0.951-0.83
		c0.361-0.211,0.765-0.315,1.209-0.315c0.328,0,0.617,0.052,0.867,0.155c0.25,0.104,0.457,0.255,0.621,0.451
		c0.164,0.195,0.287,0.432,0.371,0.707c0.084,0.276,0.127,0.588,0.127,0.937v3.815h-0.57v-3.815c0-0.56-0.129-0.999-0.385-1.317
		s-0.647-0.477-1.176-0.477c-0.392,0-0.756,0.102-1.092,0.303c-0.336,0.202-0.636,0.479-0.9,0.831v4.476H143.984z"/>
	<path fill="#666666" d="M158.809,40.343v1.326H156.2v7.35h-1.614v-7.35h-2.622v-1.326H158.809z"/>
	<path fill="#666666" d="M165.307,40.343v1.284h-3.846v2.406h3.03v1.241h-3.03v2.455h3.846v1.289h-5.472v-8.676H165.307z"/>
	<path fill="#666666" d="M174.332,49.019h-1.248c-0.14,0-0.255-0.035-0.345-0.104s-0.155-0.157-0.195-0.261l-0.647-1.771h-3.595
		l-0.647,1.771c-0.032,0.092-0.096,0.176-0.189,0.252s-0.209,0.113-0.345,0.113h-1.254l3.408-8.676h1.649L174.332,49.019z
		 M168.715,45.743h2.767l-1.057-2.887c-0.048-0.127-0.101-0.278-0.159-0.453c-0.058-0.174-0.114-0.362-0.171-0.566
		c-0.056,0.204-0.11,0.395-0.165,0.57c-0.054,0.176-0.106,0.33-0.158,0.462L168.715,45.743z"/>
	<path fill="#666666" d="M179.77,45.817c0.058,0.139,0.115,0.277,0.171,0.418c0.057-0.145,0.114-0.286,0.174-0.426
		c0.061-0.141,0.124-0.274,0.192-0.402l2.568-4.807c0.031-0.06,0.064-0.107,0.099-0.144s0.072-0.062,0.114-0.078
		c0.042-0.016,0.089-0.026,0.141-0.03s0.114-0.006,0.187-0.006h1.218v8.676h-1.422v-5.604c0-0.104,0.003-0.218,0.009-0.342
		s0.015-0.25,0.027-0.379l-2.622,4.921c-0.061,0.112-0.139,0.198-0.234,0.261s-0.208,0.094-0.336,0.094h-0.222
		c-0.129,0-0.24-0.031-0.336-0.094c-0.097-0.063-0.175-0.148-0.234-0.261l-2.658-4.938c0.016,0.133,0.027,0.262,0.033,0.387
		c0.006,0.127,0.009,0.244,0.009,0.352v5.604h-1.422v-8.676h1.218c0.072,0,0.134,0.002,0.187,0.006
		c0.052,0.004,0.099,0.015,0.141,0.03c0.042,0.017,0.081,0.042,0.117,0.078s0.07,0.084,0.102,0.144l2.593,4.818
		C179.649,45.547,179.712,45.681,179.77,45.817z"/>
</g>
<g>
	<path fill="#666666" d="M250.87,43.049v3.816c0,0.56,0.129,0.999,0.386,1.317c0.257,0.317,0.647,0.477,1.174,0.477
		c0.39,0,0.753-0.1,1.09-0.297c0.337-0.198,0.64-0.473,0.909-0.825v-4.488h0.57v5.97h-0.314c-0.111,0-0.168-0.051-0.172-0.155
		l-0.055-0.888c-0.276,0.344-0.596,0.619-0.958,0.828c-0.362,0.207-0.767,0.312-1.211,0.312c-0.332,0-0.622-0.052-0.871-0.156
		s-0.454-0.254-0.618-0.45c-0.165-0.195-0.289-0.432-0.373-0.707c-0.084-0.277-0.127-0.589-0.127-0.937v-3.816H250.87z"/>
	<path fill="#666666" d="M256.942,49.019v-5.97h0.313c0.104,0,0.163,0.05,0.18,0.15l0.054,0.899c0.272-0.344,0.589-0.621,0.951-0.83
		c0.362-0.211,0.765-0.315,1.209-0.315c0.327,0,0.616,0.052,0.866,0.155c0.25,0.104,0.457,0.255,0.621,0.451
		c0.164,0.195,0.289,0.432,0.373,0.707c0.084,0.276,0.125,0.588,0.125,0.937v3.815h-0.569v-3.815c0-0.56-0.128-0.999-0.384-1.317
		s-0.648-0.477-1.176-0.477c-0.393,0-0.757,0.102-1.093,0.303c-0.336,0.202-0.636,0.479-0.899,0.831v4.476H256.942z"/>
	<path fill="#666666" d="M266.721,43.793c-0.027,0.056-0.072,0.084-0.132,0.084c-0.044,0-0.101-0.024-0.171-0.075
		c-0.07-0.05-0.162-0.105-0.275-0.168c-0.115-0.062-0.255-0.117-0.42-0.168c-0.167-0.05-0.369-0.074-0.609-0.074
		c-0.217,0-0.414,0.03-0.592,0.092c-0.178,0.063-0.33,0.145-0.455,0.249c-0.127,0.104-0.225,0.224-0.295,0.362
		c-0.069,0.137-0.104,0.281-0.104,0.434c0,0.188,0.048,0.343,0.144,0.467c0.096,0.123,0.223,0.229,0.379,0.316
		c0.155,0.088,0.332,0.164,0.53,0.229c0.198,0.063,0.401,0.127,0.609,0.191c0.208,0.063,0.411,0.135,0.608,0.213
		c0.198,0.078,0.375,0.175,0.531,0.291c0.156,0.115,0.282,0.258,0.379,0.426c0.096,0.168,0.143,0.372,0.143,0.611
		c0,0.261-0.047,0.502-0.141,0.727s-0.229,0.418-0.408,0.582c-0.178,0.164-0.396,0.294-0.656,0.391
		c-0.26,0.096-0.557,0.144-0.889,0.144c-0.42,0-0.781-0.067-1.086-0.201c-0.304-0.134-0.576-0.31-0.815-0.524l0.138-0.205
		c0.02-0.031,0.042-0.056,0.066-0.071c0.023-0.017,0.058-0.024,0.102-0.024c0.053,0,0.116,0.032,0.192,0.096
		c0.075,0.064,0.175,0.133,0.297,0.207s0.274,0.144,0.456,0.207c0.182,0.064,0.406,0.096,0.675,0.096
		c0.252,0,0.474-0.034,0.666-0.104c0.192-0.069,0.353-0.165,0.479-0.284c0.129-0.121,0.226-0.262,0.291-0.424
		c0.066-0.162,0.1-0.333,0.1-0.513c0-0.2-0.048-0.366-0.145-0.498c-0.096-0.132-0.222-0.244-0.377-0.336
		c-0.156-0.093-0.334-0.17-0.531-0.233c-0.198-0.064-0.402-0.129-0.612-0.193c-0.21-0.063-0.414-0.133-0.612-0.209
		c-0.197-0.076-0.375-0.172-0.531-0.289c-0.155-0.115-0.281-0.256-0.377-0.422c-0.097-0.166-0.145-0.373-0.145-0.621
		c0-0.213,0.046-0.416,0.139-0.612c0.092-0.196,0.223-0.368,0.393-0.517c0.17-0.147,0.377-0.266,0.621-0.354
		s0.518-0.132,0.822-0.132c0.363,0,0.687,0.053,0.969,0.158c0.281,0.105,0.541,0.267,0.777,0.483L266.721,43.793z"/>
	<path fill="#666666" d="M270.844,42.953c0.336,0,0.646,0.058,0.932,0.174c0.287,0.116,0.535,0.285,0.744,0.507
		c0.211,0.223,0.375,0.495,0.492,0.819c0.118,0.323,0.178,0.696,0.178,1.116c0,0.088-0.014,0.148-0.039,0.18
		c-0.026,0.032-0.067,0.048-0.123,0.048h-4.309v0.114c0,0.447,0.053,0.842,0.156,1.182s0.252,0.625,0.444,0.855
		s0.424,0.402,0.696,0.52c0.271,0.115,0.576,0.174,0.912,0.174c0.299,0,0.56-0.033,0.779-0.1c0.221-0.066,0.405-0.141,0.555-0.223
		c0.15-0.081,0.27-0.155,0.357-0.221c0.088-0.066,0.152-0.1,0.191-0.1c0.053,0,0.092,0.02,0.121,0.061l0.155,0.191
		c-0.096,0.12-0.223,0.232-0.381,0.336s-0.334,0.193-0.528,0.268c-0.193,0.074-0.402,0.133-0.623,0.177
		c-0.223,0.044-0.445,0.065-0.67,0.065c-0.408,0-0.779-0.07-1.115-0.213c-0.336-0.142-0.625-0.349-0.865-0.621
		c-0.24-0.271-0.427-0.604-0.559-0.998c-0.131-0.395-0.197-0.846-0.197-1.354c0-0.428,0.062-0.823,0.184-1.186
		c0.122-0.361,0.298-0.674,0.527-0.936c0.23-0.262,0.513-0.467,0.847-0.615C270.041,43.027,270.419,42.953,270.844,42.953z
		 M270.852,43.379c-0.307,0-0.583,0.048-0.826,0.144c-0.244,0.097-0.455,0.234-0.633,0.414c-0.178,0.181-0.32,0.396-0.431,0.648
		s-0.183,0.534-0.219,0.846h3.93c0-0.32-0.044-0.606-0.132-0.861c-0.088-0.254-0.211-0.469-0.371-0.645s-0.352-0.311-0.575-0.404
		S271.124,43.379,270.852,43.379z"/>
	<path fill="#666666" d="M274.725,49.019v-5.97h0.301c0.067,0,0.116,0.015,0.146,0.042c0.03,0.028,0.047,0.076,0.051,0.145
		l0.048,1.26c0.192-0.484,0.448-0.863,0.769-1.137c0.32-0.274,0.714-0.411,1.182-0.411c0.181,0,0.346,0.019,0.498,0.057
		s0.296,0.093,0.433,0.165l-0.078,0.396c-0.013,0.063-0.053,0.096-0.12,0.096c-0.024,0-0.059-0.008-0.103-0.023
		c-0.044-0.017-0.099-0.035-0.165-0.055c-0.065-0.02-0.146-0.038-0.242-0.055c-0.097-0.016-0.206-0.023-0.33-0.023
		c-0.452,0-0.823,0.141-1.113,0.42c-0.29,0.28-0.525,0.684-0.705,1.213v3.881H274.725z"/>
	<path fill="#666666" d="M286.36,41.921c-0.044,0.088-0.096,0.15-0.153,0.186c-0.058,0.037-0.127,0.055-0.207,0.055
		s-0.17-0.031-0.27-0.094c-0.101-0.062-0.219-0.131-0.354-0.207c-0.136-0.075-0.295-0.145-0.477-0.207
		c-0.183-0.061-0.397-0.092-0.646-0.092c-0.224,0-0.419,0.026-0.585,0.08c-0.166,0.055-0.306,0.129-0.42,0.226
		c-0.114,0.096-0.199,0.211-0.255,0.345c-0.057,0.135-0.084,0.281-0.084,0.441c0,0.203,0.057,0.374,0.171,0.51
		c0.114,0.137,0.265,0.252,0.453,0.348c0.188,0.096,0.401,0.182,0.642,0.258s0.485,0.158,0.735,0.244s0.495,0.186,0.734,0.299
		c0.24,0.115,0.454,0.258,0.643,0.433c0.188,0.174,0.339,0.387,0.453,0.639c0.114,0.253,0.171,0.558,0.171,0.919
		c0,0.391-0.067,0.758-0.201,1.1c-0.134,0.343-0.33,0.641-0.588,0.895s-0.573,0.454-0.945,0.6c-0.372,0.146-0.798,0.22-1.277,0.22
		c-0.276,0-0.549-0.027-0.816-0.081c-0.268-0.055-0.525-0.131-0.771-0.23c-0.245-0.101-0.476-0.221-0.689-0.361
		c-0.214-0.139-0.405-0.295-0.573-0.467l0.468-0.774c0.044-0.056,0.098-0.103,0.159-0.142c0.063-0.037,0.131-0.057,0.207-0.057
		c0.101,0,0.208,0.041,0.324,0.123s0.253,0.174,0.411,0.273s0.344,0.191,0.558,0.272c0.214,0.082,0.472,0.123,0.771,0.123
		c0.46,0,0.815-0.108,1.067-0.327c0.252-0.218,0.378-0.531,0.378-0.939c0-0.227-0.057-0.413-0.171-0.557
		c-0.113-0.145-0.265-0.266-0.453-0.363c-0.188-0.098-0.401-0.182-0.642-0.25c-0.24-0.067-0.484-0.141-0.732-0.221
		s-0.491-0.177-0.731-0.289c-0.24-0.111-0.454-0.258-0.642-0.438c-0.188-0.18-0.34-0.405-0.453-0.676
		c-0.114-0.27-0.171-0.603-0.171-0.998c0-0.316,0.063-0.624,0.188-0.924c0.126-0.301,0.31-0.566,0.552-0.799
		c0.242-0.231,0.539-0.418,0.892-0.558c0.352-0.14,0.754-0.21,1.206-0.21c0.512,0,0.983,0.08,1.416,0.24
		c0.432,0.16,0.8,0.384,1.104,0.672L286.36,41.921z"/>
	<path fill="#666666" d="M294.261,40.343v1.326h-2.61v7.35h-1.614v-7.35h-2.622v-1.326H294.261z"/>
	<path fill="#666666" d="M302.031,49.019h-1.248c-0.14,0-0.255-0.035-0.345-0.104s-0.155-0.157-0.195-0.261l-0.647-1.771H296
		l-0.647,1.771c-0.032,0.092-0.096,0.176-0.189,0.252s-0.209,0.113-0.345,0.113h-1.254l3.408-8.676h1.649L302.031,49.019z
		 M296.415,45.743h2.767l-1.057-2.887c-0.048-0.127-0.101-0.278-0.159-0.453c-0.058-0.174-0.114-0.362-0.171-0.566
		c-0.056,0.204-0.11,0.395-0.165,0.57c-0.054,0.176-0.106,0.33-0.158,0.462L296.415,45.743z"/>
	<path fill="#666666" d="M304.593,45.629v3.39h-1.614v-8.676h2.646c0.592,0,1.099,0.062,1.521,0.184
		c0.422,0.121,0.769,0.293,1.038,0.513c0.271,0.22,0.468,0.483,0.594,0.789c0.127,0.306,0.189,0.644,0.189,1.011
		c0,0.292-0.043,0.568-0.129,0.828s-0.21,0.496-0.372,0.708s-0.362,0.397-0.6,0.558c-0.238,0.16-0.51,0.289-0.813,0.385
		c0.204,0.115,0.38,0.281,0.528,0.498l2.172,3.203h-1.452c-0.14,0-0.259-0.027-0.357-0.084c-0.098-0.056-0.181-0.135-0.248-0.24
		l-1.824-2.777c-0.068-0.104-0.144-0.178-0.226-0.223c-0.082-0.043-0.203-0.065-0.362-0.065H304.593z M304.593,44.472h1.008
		c0.304,0,0.569-0.039,0.795-0.115c0.227-0.075,0.412-0.18,0.559-0.314c0.146-0.134,0.255-0.293,0.327-0.477
		c0.071-0.184,0.107-0.387,0.107-0.606c0-0.44-0.145-0.778-0.435-1.015c-0.29-0.235-0.733-0.354-1.329-0.354h-1.032V44.472z"/>
	<path fill="#666666" d="M316.563,40.343v1.326h-2.61v7.35h-1.614v-7.35h-2.622v-1.326H316.563z"/>
	<path fill="#666666" d="M321.081,47.718c0.312,0,0.591-0.053,0.837-0.156c0.246-0.104,0.454-0.25,0.624-0.438s0.3-0.416,0.39-0.685
		c0.09-0.268,0.135-0.567,0.135-0.899v-5.196h1.614v5.196c0,0.517-0.083,0.993-0.249,1.431c-0.166,0.438-0.404,0.816-0.717,1.135
		c-0.312,0.317-0.69,0.565-1.134,0.744c-0.444,0.178-0.944,0.267-1.5,0.267c-0.557,0-1.057-0.089-1.5-0.267
		c-0.444-0.179-0.821-0.427-1.131-0.744c-0.311-0.318-0.549-0.696-0.714-1.135c-0.166-0.438-0.249-0.914-0.249-1.431v-5.196h1.613
		v5.19c0,0.332,0.045,0.632,0.136,0.899c0.09,0.269,0.219,0.498,0.387,0.688s0.375,0.337,0.621,0.441
		C320.49,47.665,320.768,47.718,321.081,47.718z"/>
	<path fill="#666666" d="M327.993,45.965v3.054h-1.614v-8.676h2.826c0.58,0,1.082,0.068,1.506,0.204s0.774,0.326,1.05,0.57
		c0.276,0.243,0.48,0.536,0.612,0.876s0.198,0.712,0.198,1.115c0,0.42-0.07,0.806-0.21,1.156c-0.141,0.35-0.351,0.65-0.63,0.902
		c-0.28,0.252-0.63,0.448-1.05,0.588c-0.421,0.141-0.912,0.21-1.477,0.21H327.993z M327.993,44.705h1.212
		c0.296,0,0.554-0.037,0.774-0.11c0.22-0.074,0.401-0.181,0.546-0.318c0.144-0.139,0.252-0.307,0.324-0.504
		c0.071-0.198,0.107-0.42,0.107-0.664c0-0.231-0.036-0.441-0.107-0.629c-0.072-0.188-0.181-0.349-0.324-0.48
		c-0.145-0.132-0.326-0.232-0.546-0.303c-0.221-0.07-0.479-0.105-0.774-0.105h-1.212V44.705z"/>
</g>
<g>
	<g>
		<g>
			<g>
				<path fill="#D35418" d="M27.845,0c-5.034,0-9.118,4.083-9.118,9.118c0,5.033,4.083,9.117,9.118,9.117s9.118-4.084,9.118-9.117
					C36.962,4.065,32.879,0,27.845,0z"/>
			</g>
		</g>
	</g>
	<g>
		<g>
			<circle fill="#D35418" cx="32.932" cy="20.682" r="1.989"/>
		</g>
	</g>
	<g>
		<g>
			<circle fill="#D35418" cx="33.336" cy="25.962" r="1.461"/>
		</g>
	</g>
	<g>
		<g>
			<circle fill="#D35418" cx="31.189" cy="30.38" r="1.056"/>
		</g>
	</g>
</g>
<g>
	<path fill="#D35418" d="M171.93,13.452c-0.966,0.806-2.207,1.292-3.561,1.292s-2.595-0.486-3.561-1.292
		c-0.804,0.014-1.548,0.199-2.196,0.506c-0.304,1.25-0.945,2.369-1.831,3.247c3.181,0.198,5.696,2.37,5.696,5.016v1.224h5.356h4.535
		v-6.372C176.37,15.095,174.389,13.493,171.93,13.452z"/>
	<path fill="#D35418" d="M168.37,13.744c2.518,0,4.566-2.049,4.566-4.567c0-2.518-2.049-4.566-4.566-4.566s-4.566,2.049-4.566,4.566
		C163.803,11.695,165.852,13.744,168.37,13.744z"/>
	<path fill="#D35418" d="M168.37,4.61c2.518,0,4.566,2.049,4.566,4.566c0,2.519-2.049,4.567-4.566,4.567s-4.566-2.049-4.566-4.567
		C163.803,6.659,165.852,4.61,168.37,4.61z"/>
	<path fill="#D35418" d="M151.174,17.205c-0.919-0.909-1.579-2.078-1.867-3.386c-0.57-0.223-1.203-0.355-1.877-0.367
		c-0.966,0.806-2.207,1.292-3.561,1.292s-2.595-0.486-3.561-1.292c-2.459,0.041-4.439,1.643-4.439,3.62v6.372h4.535h5.073v-1.224
		C145.478,19.575,147.994,17.403,151.174,17.205z"/>
	<path fill="#D35418" d="M143.87,13.744c2.518,0,4.566-2.049,4.566-4.567c0-2.518-2.049-4.566-4.566-4.566s-4.566,2.049-4.566,4.566
		C139.303,11.695,141.352,13.744,143.87,13.744z"/>
	<path fill="#D35418" d="M143.87,4.61c2.518,0,4.566,2.049,4.566,4.566c0,2.519-2.049,4.567-4.566,4.567s-4.566-2.049-4.566-4.567
		C139.303,6.659,141.352,4.61,143.87,4.61z"/>
	<path fill="#D35418" d="M152.437,18.186h-0.79c-2.851,0-5.169,1.81-5.169,4.035v7.465h19v-7.465c0-2.226-2.318-4.035-5.169-4.035
		h-0.791c-1.034,0.63-2.243,1-3.54,1S153.471,18.815,152.437,18.186z"/>
	<path fill="#D35418" d="M155.978,18.186c3.217,0,5.833-2.616,5.833-5.833s-2.616-5.834-5.833-5.834s-5.833,2.617-5.833,5.834
		S152.761,18.186,155.978,18.186z"/>
	<path fill="#D35418" d="M150.145,12.353c0-3.217,2.616-5.834,5.833-5.834s5.833,2.617,5.833,5.834s-2.616,5.833-5.833,5.833
		S150.145,15.569,150.145,12.353z"/>
</g>
<g id="_x32_6_2_">
	<path fill="#D35418" d="M305.936,3.255c-0.708-1.061-1.994-1.637-3.531-1.583c-1.248,0.044-2.667,0.73-3.743,1.38
		c0-0.002,0-0.005,0-0.008c0.001-0.027,0.004-0.054,0.004-0.081c0-1.278-1.036-2.314-2.314-2.314c-0.036,0-5.744-0.015-5.744-0.015
		V0.64c0,0-5.686,0.014-5.722,0.014c-1.278,0-2.314,1.036-2.314,2.314c0,0.027,0.003,0.054,0.004,0.081c0,0.003,0,0.005,0,0.008
		c-1.076-0.649-2.495-1.335-3.743-1.38c-1.537-0.055-2.823,0.521-3.531,1.582c-0.896,1.343-0.789,3.25,0.318,5.668
		c1.673,3.652,5.603,6.393,7.55,7.58c0.954,2.215,2.924,3.878,5.512,4.4c0.046,0.107,0.07,0.213,0.07,0.321c0,0.513,0,2.3,0,3.555
		h-1.556c-0.817,0-1.48,0.505-1.48,1.13v0.166h-0.534c-1.029,0-1.864,0.835-1.864,1.864v1.911c4.534,0,9.567-0.006,14.604-0.006
		v-1.91c0-1.029-0.835-1.863-1.864-1.863h-0.534v-0.168c0-0.623-0.663-1.129-1.48-1.129h-1.556c0-1.256,0-3.042,0-3.555
		c0-0.107,0.024-0.213,0.07-0.322c2.588-0.521,4.558-2.185,5.512-4.398c1.947-1.188,5.878-3.928,7.55-7.58
		C306.725,6.503,306.833,4.597,305.936,3.255z M277.504,8.063c-0.766-1.672-0.936-2.969-0.479-3.652
		c0.438-0.656,1.437-0.673,1.732-0.662c1.057,0.037,2.75,1.021,3.813,1.789c-0.003,2.768-0.033,7.984-0.032,8.056
		C280.752,12.301,278.555,10.36,277.504,8.063z M303.732,8.06c-1.049,2.289-3.246,4.231-5.034,5.526
		c0.002-0.071-0.029-5.284-0.031-8.053c1.063-0.769,2.756-1.751,3.813-1.788c0.296-0.012,1.295,0.006,1.732,0.66
		C304.667,5.089,304.498,6.388,303.732,8.06z"/>
</g>
<g>
	<g>
		
			<line fill="none" stroke="#D35418" stroke-linecap="round" stroke-linejoin="round" x1="74.478" y1="46.019" x2="74.478" y2="46.019"/>
		
			<line fill="none" stroke="#D35418" stroke-linecap="round" stroke-linejoin="round" stroke-dasharray="0,2.987" x1="77.465" y1="46.019" x2="105.841" y2="46.019"/>
		
			<line fill="none" stroke="#D35418" stroke-linecap="round" stroke-linejoin="round" x1="107.334" y1="46.019" x2="107.334" y2="46.019"/>
		<g>
			<polygon fill="#D35418" points="105.343,47.714 107.04,46.019 105.343,44.323 106.783,44.323 108.478,46.019 106.783,47.714 			
				"/>
		</g>
	</g>
</g>
<g>
	<g>
		
			<line fill="none" stroke="#D35418" stroke-linecap="round" stroke-linejoin="round" x1="205.478" y1="46.019" x2="205.478" y2="46.019"/>
		
			<line fill="none" stroke="#D35418" stroke-linecap="round" stroke-linejoin="round" stroke-dasharray="0,2.987" x1="208.465" y1="46.019" x2="236.841" y2="46.019"/>
		
			<line fill="none" stroke="#D35418" stroke-linecap="round" stroke-linejoin="round" x1="238.334" y1="46.019" x2="238.334" y2="46.019"/>
		<g>
			<polygon fill="#D35418" points="236.343,47.714 238.04,46.019 236.343,44.323 237.783,44.323 239.478,46.019 237.783,47.714 			
				"/>
		</g>
	</g>
</g>
</svg>
