<?xml version="1.0" encoding="utf-8"?>
<!-- Generator: Adobe Illustrator 15.1.0, SVG Export Plug-In . SVG Version: 6.00 Build 0)  -->
<!DOCTYPE svg PUBLIC "-//W3C//DTD SVG 1.1//EN" "http://www.w3.org/Graphics/SVG/1.1/DTD/svg11.dtd">
<svg version="1.1" id="Ebene_1" xmlns="http://www.w3.org/2000/svg" xmlns:xlink="http://www.w3.org/1999/xlink" x="0px" y="0px"
	 width="322.179px" height="51.251px" viewBox="0 0 322.179 51.251" enable-background="new 0 0 322.179 51.251"
	 xml:space="preserve">
<g>
	<path fill="#FFFFFF" d="M2.274,50.939c-0.024,0.056-0.055,0.102-0.093,0.138c-0.038,0.036-0.093,0.054-0.165,0.054H1.608
		l1.05-2.334l-2.526-5.748h0.474c0.06,0,0.107,0.016,0.141,0.045c0.034,0.03,0.059,0.063,0.075,0.1l2.01,4.644
		c0.024,0.06,0.045,0.121,0.063,0.183c0.018,0.063,0.035,0.125,0.051,0.189c0.02-0.064,0.041-0.127,0.063-0.189
		c0.022-0.062,0.045-0.123,0.069-0.183l1.986-4.644c0.02-0.045,0.048-0.079,0.084-0.105c0.036-0.025,0.076-0.039,0.12-0.039h0.438
		L2.274,50.939z"/>
	<path fill="#FFFFFF" d="M8.982,42.953c0.428,0,0.811,0.072,1.149,0.219s0.623,0.354,0.855,0.621s0.409,0.592,0.531,0.969
		c0.122,0.379,0.183,0.801,0.183,1.27c0,0.468-0.061,0.89-0.183,1.266c-0.122,0.376-0.299,0.698-0.531,0.967
		c-0.232,0.268-0.517,0.473-0.855,0.617s-0.721,0.217-1.149,0.217c-0.428,0-0.811-0.072-1.149-0.217
		c-0.338-0.145-0.624-0.35-0.858-0.617c-0.234-0.269-0.412-0.591-0.534-0.967s-0.183-0.798-0.183-1.266
		c0-0.469,0.061-0.891,0.183-1.27c0.122-0.377,0.3-0.701,0.534-0.969c0.234-0.268,0.52-0.475,0.858-0.621
		C8.171,43.025,8.554,42.953,8.982,42.953z M8.982,48.646c0.356,0,0.667-0.061,0.933-0.183c0.266-0.122,0.488-0.297,0.666-0.524
		c0.178-0.229,0.311-0.504,0.399-0.825c0.088-0.322,0.132-0.683,0.132-1.083c0-0.396-0.044-0.756-0.132-1.08
		c-0.088-0.324-0.221-0.602-0.399-0.831c-0.178-0.229-0.4-0.407-0.666-0.531c-0.266-0.124-0.577-0.187-0.933-0.187
		s-0.667,0.063-0.933,0.187s-0.488,0.302-0.666,0.531c-0.178,0.229-0.312,0.507-0.402,0.831c-0.09,0.324-0.135,0.684-0.135,1.08
		c0,0.4,0.045,0.761,0.135,1.083c0.09,0.321,0.224,0.597,0.402,0.825c0.178,0.228,0.4,0.402,0.666,0.524S8.626,48.646,8.982,48.646z
		"/>
	<path fill="#FFFFFF" d="M13.62,43.049v3.816c0,0.561,0.128,0.999,0.385,1.316c0.257,0.318,0.648,0.478,1.174,0.478
		c0.389,0,0.752-0.099,1.09-0.298c0.337-0.197,0.64-0.473,0.909-0.824v-4.488h0.57v5.971h-0.314c-0.111,0-0.168-0.053-0.172-0.156
		l-0.055-0.889c-0.276,0.345-0.596,0.621-0.958,0.828c-0.363,0.209-0.766,0.313-1.211,0.313c-0.332,0-0.623-0.053-0.871-0.156
		s-0.455-0.254-0.619-0.449c-0.165-0.197-0.289-0.433-0.373-0.709c-0.084-0.275-0.126-0.588-0.126-0.936v-3.816H13.62z"/>
	<path fill="#FFFFFF" d="M19.692,49.02v-5.971h0.3c0.068,0,0.117,0.014,0.147,0.042c0.03,0.028,0.047,0.076,0.051,0.144l0.048,1.261
		c0.192-0.483,0.448-0.863,0.768-1.138c0.32-0.273,0.714-0.41,1.182-0.41c0.18,0,0.346,0.02,0.498,0.057
		c0.152,0.038,0.296,0.094,0.432,0.165l-0.078,0.396c-0.012,0.064-0.052,0.097-0.12,0.097c-0.024,0-0.058-0.009-0.102-0.024
		c-0.044-0.016-0.099-0.033-0.165-0.054s-0.147-0.038-0.243-0.054c-0.096-0.016-0.206-0.024-0.33-0.024
		c-0.452,0-0.823,0.14-1.113,0.42s-0.525,0.685-0.705,1.212v3.883H19.692z"/>
	<path fill="#FFFFFF" d="M28.494,49.02h-1.62v-8.676h1.62V49.02z"/>
	<path fill="#FFFFFF" d="M38.147,44.682c0,0.635-0.106,1.219-0.318,1.752c-0.212,0.531-0.51,0.989-0.894,1.373
		c-0.384,0.385-0.846,0.683-1.386,0.895s-1.139,0.318-1.794,0.318h-3.313v-8.676h3.313c0.655,0,1.254,0.106,1.794,0.32
		s1.002,0.512,1.386,0.895c0.384,0.381,0.682,0.838,0.894,1.371C38.041,43.461,38.147,44.045,38.147,44.682z M36.497,44.682
		c0-0.477-0.063-0.904-0.191-1.281c-0.128-0.379-0.311-0.698-0.546-0.961c-0.236-0.262-0.523-0.463-0.861-0.603
		s-0.719-0.21-1.143-0.21h-1.687v6.107h1.687c0.424,0,0.805-0.069,1.143-0.209c0.338-0.141,0.625-0.342,0.861-0.604
		c0.235-0.262,0.418-0.582,0.546-0.96S36.497,45.157,36.497,44.682z"/>
	<path fill="#FFFFFF" d="M44.885,40.344v1.283h-3.846v2.406h3.03v1.242h-3.03v2.453h3.846v1.291h-5.472v-8.676H44.885z"/>
	<path fill="#FFFFFF" d="M53.909,49.02h-1.248c-0.14,0-0.255-0.035-0.345-0.105s-0.155-0.156-0.195-0.262l-0.647-1.77h-3.595
		l-0.647,1.77c-0.032,0.093-0.096,0.177-0.189,0.253c-0.094,0.075-0.209,0.114-0.345,0.114h-1.254l3.408-8.676h1.649L53.909,49.02z
		 M48.293,45.743h2.767l-1.057-2.886c-0.048-0.129-0.101-0.279-0.159-0.453c-0.058-0.174-0.114-0.363-0.171-0.567
		c-0.056,0.204-0.11,0.394-0.165,0.57c-0.054,0.176-0.106,0.329-0.158,0.462L48.293,45.743z"/>
</g>
<g>
	<path fill="#FFFFFF" d="M130.274,50.939c-0.024,0.056-0.055,0.102-0.093,0.138c-0.038,0.036-0.093,0.054-0.165,0.054h-0.408
		l1.05-2.334l-2.526-5.748h0.474c0.06,0,0.107,0.016,0.141,0.045c0.034,0.03,0.059,0.063,0.075,0.1l2.01,4.644
		c0.024,0.06,0.045,0.121,0.063,0.183c0.018,0.063,0.035,0.125,0.051,0.189c0.02-0.064,0.041-0.127,0.063-0.189
		c0.022-0.062,0.045-0.123,0.069-0.183l1.986-4.644c0.02-0.045,0.048-0.079,0.084-0.105c0.036-0.025,0.076-0.039,0.12-0.039h0.438
		L130.274,50.939z"/>
	<path fill="#FFFFFF" d="M136.982,42.953c0.428,0,0.811,0.072,1.149,0.219s0.623,0.354,0.855,0.621s0.409,0.592,0.531,0.969
		c0.122,0.379,0.183,0.801,0.183,1.27c0,0.468-0.061,0.89-0.183,1.266c-0.122,0.376-0.299,0.698-0.531,0.967
		c-0.232,0.268-0.517,0.473-0.855,0.617s-0.721,0.217-1.149,0.217c-0.428,0-0.811-0.072-1.149-0.217
		c-0.338-0.145-0.624-0.35-0.858-0.617c-0.234-0.269-0.412-0.591-0.534-0.967s-0.183-0.798-0.183-1.266
		c0-0.469,0.061-0.891,0.183-1.27c0.122-0.377,0.3-0.701,0.534-0.969c0.234-0.268,0.52-0.475,0.858-0.621
		C136.171,43.025,136.554,42.953,136.982,42.953z M136.982,48.646c0.356,0,0.667-0.061,0.933-0.183
		c0.266-0.122,0.488-0.297,0.666-0.524c0.178-0.229,0.311-0.504,0.399-0.825c0.088-0.322,0.132-0.683,0.132-1.083
		c0-0.396-0.044-0.756-0.132-1.08c-0.088-0.324-0.221-0.602-0.399-0.831c-0.178-0.229-0.4-0.407-0.666-0.531
		c-0.266-0.124-0.577-0.187-0.933-0.187s-0.667,0.063-0.933,0.187s-0.488,0.302-0.666,0.531c-0.178,0.229-0.312,0.507-0.402,0.831
		c-0.09,0.324-0.135,0.684-0.135,1.08c0,0.4,0.045,0.761,0.135,1.083c0.09,0.321,0.224,0.597,0.402,0.825
		c0.178,0.228,0.4,0.402,0.666,0.524S136.626,48.646,136.982,48.646z"/>
	<path fill="#FFFFFF" d="M141.62,43.049v3.816c0,0.561,0.128,0.999,0.385,1.316c0.257,0.318,0.648,0.478,1.174,0.478
		c0.389,0,0.752-0.099,1.09-0.298c0.337-0.197,0.64-0.473,0.909-0.824v-4.488h0.57v5.971h-0.314c-0.111,0-0.168-0.053-0.172-0.156
		l-0.055-0.889c-0.276,0.345-0.596,0.621-0.958,0.828c-0.363,0.209-0.766,0.313-1.211,0.313c-0.332,0-0.623-0.053-0.871-0.156
		s-0.455-0.254-0.619-0.449c-0.165-0.197-0.289-0.433-0.373-0.709c-0.084-0.275-0.126-0.588-0.126-0.936v-3.816H141.62z"/>
	<path fill="#FFFFFF" d="M147.692,49.02v-5.971h0.3c0.068,0,0.117,0.014,0.147,0.042c0.03,0.028,0.047,0.076,0.051,0.144
		l0.048,1.261c0.192-0.483,0.448-0.863,0.768-1.138c0.32-0.273,0.714-0.41,1.182-0.41c0.18,0,0.346,0.02,0.498,0.057
		c0.152,0.038,0.296,0.094,0.432,0.165l-0.078,0.396c-0.012,0.064-0.052,0.097-0.12,0.097c-0.024,0-0.058-0.009-0.102-0.024
		c-0.044-0.016-0.099-0.033-0.165-0.054s-0.147-0.038-0.243-0.054c-0.096-0.016-0.206-0.024-0.33-0.024
		c-0.452,0-0.823,0.14-1.113,0.42s-0.525,0.685-0.705,1.212v3.883H147.692z"/>
	<path fill="#FFFFFF" d="M160.79,40.344v1.325h-2.61v7.351h-1.614v-7.351h-2.622v-1.325H160.79z"/>
	<path fill="#FFFFFF" d="M167.287,40.344v1.283h-3.846v2.406h3.03v1.242h-3.03v2.453h3.846v1.291h-5.472v-8.676H167.287z"/>
	<path fill="#FFFFFF" d="M176.312,49.02h-1.248c-0.14,0-0.255-0.035-0.345-0.105s-0.155-0.156-0.195-0.262l-0.647-1.77h-3.595
		l-0.647,1.77c-0.032,0.093-0.096,0.177-0.189,0.253c-0.094,0.075-0.209,0.114-0.345,0.114h-1.254l3.408-8.676h1.649L176.312,49.02z
		 M170.695,45.743h2.767l-1.057-2.886c-0.048-0.129-0.101-0.279-0.159-0.453c-0.058-0.174-0.114-0.363-0.171-0.567
		c-0.056,0.204-0.11,0.394-0.165,0.57c-0.054,0.176-0.106,0.329-0.158,0.462L170.695,45.743z"/>
	<path fill="#FFFFFF" d="M181.75,45.818c0.058,0.138,0.115,0.277,0.171,0.416c0.057-0.144,0.114-0.285,0.174-0.426
		c0.061-0.14,0.124-0.273,0.192-0.401l2.568-4.806c0.031-0.061,0.064-0.108,0.099-0.145s0.072-0.063,0.114-0.078
		s0.089-0.025,0.141-0.029s0.114-0.006,0.187-0.006h1.218v8.676h-1.422v-5.604c0-0.104,0.003-0.218,0.009-0.342
		s0.015-0.25,0.027-0.378l-2.622,4.92c-0.061,0.111-0.139,0.199-0.234,0.261s-0.208,0.093-0.336,0.093h-0.222
		c-0.129,0-0.24-0.031-0.336-0.093c-0.097-0.062-0.175-0.149-0.234-0.261l-2.658-4.938c0.016,0.131,0.027,0.26,0.033,0.387
		c0.006,0.125,0.009,0.242,0.009,0.351v5.604h-1.422v-8.676h1.218c0.072,0,0.134,0.002,0.187,0.006
		c0.052,0.004,0.099,0.014,0.141,0.029s0.081,0.042,0.117,0.078s0.07,0.084,0.102,0.145l2.593,4.817
		C181.629,45.547,181.692,45.68,181.75,45.818z"/>
</g>
<g>
	<path fill="#FFFFFF" d="M253.246,42.953c0.428,0,0.812,0.072,1.149,0.219s0.623,0.354,0.854,0.621s0.409,0.592,0.53,0.969
		c0.123,0.379,0.184,0.801,0.184,1.27c0,0.468-0.061,0.89-0.184,1.266c-0.121,0.376-0.299,0.698-0.53,0.967
		c-0.231,0.268-0.517,0.473-0.854,0.617s-0.722,0.217-1.149,0.217c-0.429,0-0.812-0.072-1.149-0.217s-0.623-0.35-0.857-0.617
		c-0.234-0.269-0.412-0.591-0.534-0.967s-0.183-0.798-0.183-1.266c0-0.469,0.061-0.891,0.183-1.27
		c0.122-0.377,0.3-0.701,0.534-0.969s0.52-0.475,0.857-0.621S252.817,42.953,253.246,42.953z M253.246,48.646
		c0.356,0,0.667-0.061,0.933-0.183s0.488-0.297,0.666-0.524c0.178-0.229,0.311-0.504,0.399-0.825
		c0.088-0.322,0.132-0.683,0.132-1.083c0-0.396-0.044-0.756-0.132-1.08c-0.089-0.324-0.222-0.602-0.399-0.831
		s-0.4-0.407-0.666-0.531s-0.576-0.187-0.933-0.187s-0.667,0.063-0.933,0.187c-0.267,0.124-0.488,0.302-0.666,0.531
		c-0.179,0.229-0.313,0.507-0.402,0.831s-0.135,0.684-0.135,1.08c0,0.4,0.045,0.761,0.135,1.083c0.09,0.321,0.224,0.597,0.402,0.825
		c0.178,0.228,0.399,0.402,0.666,0.524C252.579,48.586,252.89,48.646,253.246,48.646z"/>
	<path fill="#FFFFFF" d="M257.884,43.049v3.816c0,0.561,0.129,0.999,0.385,1.316c0.258,0.318,0.648,0.478,1.174,0.478
		c0.39,0,0.753-0.099,1.09-0.298c0.338-0.197,0.641-0.473,0.91-0.824v-4.488h0.569v5.971h-0.313c-0.111,0-0.168-0.053-0.172-0.156
		l-0.055-0.889c-0.277,0.345-0.596,0.621-0.959,0.828c-0.362,0.209-0.766,0.313-1.211,0.313c-0.332,0-0.622-0.053-0.871-0.156
		c-0.248-0.104-0.454-0.254-0.618-0.449c-0.165-0.197-0.288-0.433-0.372-0.709c-0.085-0.275-0.127-0.588-0.127-0.936v-3.816H257.884
		z"/>
	<path fill="#FFFFFF" d="M263.956,49.02v-5.971h0.299c0.068,0,0.117,0.014,0.147,0.042s0.047,0.076,0.052,0.144l0.047,1.261
		c0.192-0.483,0.448-0.863,0.769-1.138c0.319-0.273,0.714-0.41,1.182-0.41c0.181,0,0.347,0.02,0.498,0.057
		c0.152,0.038,0.296,0.094,0.433,0.165l-0.078,0.396c-0.012,0.064-0.053,0.097-0.12,0.097c-0.024,0-0.058-0.009-0.103-0.024
		c-0.044-0.016-0.099-0.033-0.164-0.054c-0.066-0.021-0.147-0.038-0.244-0.054c-0.096-0.016-0.205-0.024-0.33-0.024
		c-0.451,0-0.822,0.14-1.112,0.42s-0.524,0.685-0.705,1.212v3.883H263.956z"/>
	<path fill="#FFFFFF" d="M275.59,41.921c-0.044,0.089-0.096,0.149-0.153,0.187c-0.058,0.035-0.127,0.054-0.207,0.054
		s-0.17-0.031-0.27-0.093c-0.101-0.063-0.219-0.131-0.354-0.207s-0.295-0.145-0.478-0.207c-0.182-0.063-0.396-0.094-0.645-0.094
		c-0.225,0-0.419,0.027-0.585,0.082c-0.166,0.053-0.306,0.129-0.42,0.225s-0.199,0.211-0.255,0.345
		c-0.057,0.134-0.084,0.281-0.084,0.44c0,0.205,0.057,0.375,0.171,0.511s0.265,0.252,0.453,0.349
		c0.188,0.096,0.401,0.182,0.642,0.258s0.485,0.156,0.735,0.242s0.495,0.187,0.734,0.301c0.24,0.113,0.454,0.258,0.643,0.432
		c0.188,0.174,0.339,0.387,0.453,0.639s0.171,0.559,0.171,0.918c0,0.393-0.067,0.76-0.201,1.102s-0.33,0.64-0.588,0.894
		c-0.258,0.255-0.573,0.454-0.945,0.601c-0.371,0.146-0.798,0.219-1.277,0.219c-0.276,0-0.549-0.027-0.816-0.081
		s-0.525-0.132-0.771-0.231s-0.476-0.22-0.689-0.359c-0.214-0.141-0.405-0.297-0.573-0.469l0.468-0.773
		c0.045-0.057,0.098-0.104,0.159-0.141c0.062-0.039,0.132-0.058,0.207-0.058c0.101,0,0.208,0.041,0.324,0.123
		s0.253,0.173,0.411,0.272c0.158,0.101,0.344,0.191,0.558,0.273s0.472,0.123,0.771,0.123c0.461,0,0.816-0.109,1.068-0.326
		c0.252-0.219,0.378-0.531,0.378-0.939c0-0.229-0.057-0.414-0.171-0.559c-0.113-0.144-0.265-0.265-0.453-0.363
		c-0.188-0.098-0.401-0.18-0.642-0.248c-0.239-0.068-0.483-0.143-0.731-0.223s-0.492-0.176-0.732-0.287
		c-0.24-0.112-0.454-0.259-0.643-0.438c-0.188-0.181-0.338-0.405-0.453-0.675c-0.113-0.271-0.17-0.604-0.17-1
		c0-0.315,0.063-0.623,0.188-0.924c0.126-0.299,0.31-0.565,0.552-0.797c0.242-0.232,0.539-0.418,0.891-0.559
		c0.353-0.141,0.754-0.21,1.207-0.21c0.512,0,0.984,0.08,1.416,0.239c0.432,0.16,0.8,0.385,1.104,0.673L275.59,41.921z"/>
	<path fill="#FFFFFF" d="M283.491,40.344v1.325h-2.61v7.351h-1.614v-7.351h-2.622v-1.325H283.491z"/>
	<path fill="#FFFFFF" d="M291.262,49.02h-1.248c-0.14,0-0.255-0.035-0.345-0.105s-0.155-0.156-0.195-0.262l-0.647-1.77h-3.595
		l-0.647,1.77c-0.032,0.093-0.096,0.177-0.189,0.253c-0.094,0.075-0.209,0.114-0.345,0.114h-1.254l3.408-8.676h1.649L291.262,49.02z
		 M285.646,45.743h2.767l-1.057-2.886c-0.048-0.129-0.101-0.279-0.159-0.453c-0.058-0.174-0.114-0.363-0.171-0.567
		c-0.056,0.204-0.11,0.394-0.165,0.57c-0.054,0.176-0.106,0.329-0.158,0.462L285.646,45.743z"/>
	<path fill="#FFFFFF" d="M293.823,45.629v3.391h-1.614v-8.676h2.646c0.592,0,1.099,0.061,1.521,0.182
		c0.422,0.123,0.769,0.294,1.038,0.514c0.271,0.221,0.468,0.482,0.594,0.789c0.127,0.307,0.189,0.643,0.189,1.011
		c0,0.292-0.043,0.568-0.129,0.828c-0.086,0.261-0.21,0.496-0.372,0.708s-0.362,0.398-0.6,0.559c-0.238,0.16-0.51,0.287-0.813,0.383
		c0.204,0.117,0.38,0.283,0.528,0.498l2.172,3.205h-1.452c-0.14,0-0.259-0.028-0.357-0.084c-0.098-0.057-0.181-0.137-0.248-0.24
		l-1.824-2.778c-0.068-0.104-0.144-0.178-0.226-0.222c-0.082-0.045-0.203-0.066-0.362-0.066H293.823z M293.823,44.471h1.008
		c0.304,0,0.569-0.037,0.795-0.113c0.227-0.076,0.412-0.182,0.559-0.315c0.146-0.134,0.255-0.293,0.327-0.478
		c0.071-0.184,0.107-0.385,0.107-0.605c0-0.439-0.145-0.777-0.435-1.014s-0.733-0.354-1.329-0.354h-1.032V44.471z"/>
	<path fill="#FFFFFF" d="M305.794,40.344v1.325h-2.61v7.351h-1.614v-7.351h-2.622v-1.325H305.794z"/>
	<path fill="#FFFFFF" d="M310.312,47.717c0.312,0,0.591-0.052,0.837-0.156c0.246-0.104,0.454-0.25,0.624-0.438s0.3-0.416,0.39-0.684
		c0.09-0.269,0.135-0.568,0.135-0.9v-5.195h1.614v5.195c0,0.516-0.083,0.993-0.249,1.432c-0.166,0.438-0.404,0.815-0.717,1.133
		c-0.312,0.318-0.69,0.566-1.134,0.744c-0.444,0.178-0.944,0.268-1.5,0.268c-0.557,0-1.057-0.09-1.5-0.268
		c-0.444-0.178-0.821-0.426-1.131-0.744c-0.311-0.317-0.549-0.695-0.714-1.133c-0.166-0.438-0.249-0.916-0.249-1.432v-5.195h1.613
		v5.189c0,0.332,0.045,0.632,0.136,0.9c0.09,0.268,0.219,0.496,0.387,0.687s0.375,0.337,0.621,0.44
		C309.721,47.665,309.999,47.717,310.312,47.717z"/>
	<path fill="#FFFFFF" d="M317.223,45.965v3.055h-1.614v-8.676h2.826c0.58,0,1.082,0.067,1.506,0.203
		c0.424,0.137,0.774,0.326,1.05,0.57c0.276,0.244,0.48,0.536,0.612,0.876s0.198,0.712,0.198,1.116c0,0.42-0.07,0.805-0.21,1.154
		c-0.141,0.351-0.351,0.651-0.63,0.903c-0.28,0.252-0.63,0.448-1.05,0.588c-0.421,0.14-0.912,0.21-1.477,0.21H317.223z
		 M317.223,44.705h1.212c0.296,0,0.554-0.037,0.774-0.111c0.22-0.074,0.401-0.18,0.546-0.318c0.144-0.137,0.252-0.305,0.324-0.504
		c0.071-0.197,0.107-0.418,0.107-0.662c0-0.232-0.036-0.442-0.107-0.631c-0.072-0.188-0.181-0.348-0.324-0.479
		c-0.145-0.132-0.326-0.233-0.546-0.304c-0.221-0.069-0.479-0.104-0.774-0.104h-1.212V44.705z"/>
</g>
<g>
	<g>
		<g>
			<g>
				<path fill="#FFFFFF" d="M22.367,0c-5.034,0-9.118,4.083-9.118,9.118s4.083,9.118,9.118,9.118c5.034,0,9.118-4.083,9.118-9.118
					C31.484,4.066,27.4,0,22.367,0z"/>
			</g>
		</g>
	</g>
	<g>
		<g>
			<circle fill="#FFFFFF" cx="27.454" cy="20.682" r="1.989"/>
		</g>
	</g>
	<g>
		<g>
			<circle fill="#FFFFFF" cx="27.858" cy="25.963" r="1.461"/>
		</g>
	</g>
	<g>
		<g>
			<circle fill="#FFFFFF" cx="25.711" cy="30.38" r="1.056"/>
		</g>
	</g>
</g>
<g>
	<path fill="#FFFFFF" d="M173.452,13.452c-0.966,0.806-2.207,1.292-3.561,1.292s-2.595-0.486-3.561-1.292
		c-0.804,0.014-1.548,0.2-2.196,0.506c-0.304,1.25-0.945,2.37-1.831,3.247c3.181,0.198,5.696,2.37,5.696,5.016v1.223h5.356h4.535
		v-6.372C177.892,15.095,175.911,13.494,173.452,13.452z"/>
	<path fill="#FFFFFF" d="M169.892,13.744c2.518,0,4.566-2.049,4.566-4.567s-2.049-4.566-4.566-4.566s-4.566,2.048-4.566,4.566
		S167.374,13.744,169.892,13.744z"/>
	<path fill="#FFFFFF" d="M169.892,4.611c2.518,0,4.566,2.048,4.566,4.566s-2.049,4.567-4.566,4.567s-4.566-2.049-4.566-4.567
		S167.374,4.611,169.892,4.611z"/>
	<path fill="#FFFFFF" d="M152.696,17.205c-0.919-0.91-1.579-2.078-1.867-3.386c-0.57-0.222-1.203-0.356-1.877-0.368
		c-0.966,0.806-2.207,1.292-3.561,1.292s-2.595-0.486-3.561-1.292c-2.46,0.042-4.439,1.643-4.439,3.621v6.372h4.535H147v-1.223
		C147,19.575,149.516,17.403,152.696,17.205z"/>
	<path fill="#FFFFFF" d="M145.392,13.744c2.518,0,4.566-2.049,4.566-4.567s-2.049-4.566-4.566-4.566s-4.566,2.048-4.566,4.566
		S142.874,13.744,145.392,13.744z"/>
	<path fill="#FFFFFF" d="M145.392,4.611c2.518,0,4.566,2.048,4.566,4.566s-2.049,4.567-4.566,4.567s-4.566-2.049-4.566-4.567
		S142.874,4.611,145.392,4.611z"/>
	<path fill="#FFFFFF" d="M153.959,18.186h-0.79c-2.851,0-5.169,1.81-5.169,4.035v7.465h19v-7.465c0-2.225-2.318-4.035-5.169-4.035
		h-0.791c-1.034,0.63-2.243,1-3.54,1S154.993,18.816,153.959,18.186z"/>
	<path fill="#FFFFFF" d="M157.5,18.186c3.217,0,5.833-2.617,5.833-5.833c0-3.217-2.616-5.833-5.833-5.833s-5.833,2.617-5.833,5.833
		C151.667,15.569,154.283,18.186,157.5,18.186z"/>
	<path fill="#FFFFFF" d="M151.667,12.353c0-3.217,2.616-5.833,5.833-5.833s5.833,2.617,5.833,5.833c0,3.216-2.616,5.833-5.833,5.833
		S151.667,15.569,151.667,12.353z"/>
</g>
<g id="_x32_6_1_">
	<path fill="#FFFFFF" d="M303.458,3.254c-0.708-1.061-1.994-1.637-3.531-1.583c-1.248,0.044-2.667,0.73-3.743,1.38
		c0-0.003,0-0.005,0-0.008c0.001-0.027,0.004-0.054,0.004-0.081c0-1.278-1.036-2.314-2.314-2.314c-0.036,0-5.744-0.014-5.744-0.014
		v0.005c0,0-5.686,0.014-5.722,0.014c-1.278,0-2.314,1.037-2.314,2.315c0,0.027,0.003,0.054,0.004,0.081c0,0.002,0,0.005,0,0.008
		c-1.076-0.649-2.495-1.335-3.743-1.38c-1.537-0.055-2.824,0.522-3.532,1.583c-0.896,1.342-0.788,3.249,0.319,5.668
		c1.672,3.652,5.603,6.393,7.55,7.58c0.954,2.214,2.924,3.878,5.512,4.399c0.046,0.108,0.07,0.214,0.07,0.322c0,0.513,0,2.3,0,3.555
		h-1.556c-0.818,0-1.481,0.505-1.481,1.129v0.167h-0.533c-1.029,0-1.864,0.835-1.864,1.864v1.91c4.534,0,9.567-0.004,14.604-0.004
		v-1.911c0-1.029-0.835-1.864-1.864-1.864h-0.534v-0.167c0-0.624-0.663-1.129-1.48-1.129h-1.556c0-1.256,0-3.042,0-3.555
		c0-0.108,0.024-0.213,0.07-0.322c2.588-0.521,4.558-2.185,5.512-4.399c1.947-1.187,5.877-3.928,7.55-7.58
		C304.247,6.503,304.354,4.597,303.458,3.254z M275.026,8.064c-0.766-1.672-0.937-2.97-0.479-3.653
		c0.438-0.656,1.437-0.672,1.732-0.662c1.057,0.038,2.75,1.021,3.813,1.789c-0.003,2.768-0.033,7.984-0.031,8.056
		C278.274,12.301,276.077,10.36,275.026,8.064z M301.254,8.059c-1.049,2.29-3.247,4.232-5.034,5.527
		c0.002-0.071-0.029-5.284-0.031-8.053c1.063-0.768,2.756-1.751,3.813-1.789c0.296-0.011,1.295,0.006,1.732,0.661
		C302.189,5.089,302.02,6.387,301.254,8.059z"/>
</g>
<g>
	<g>
		<line fill="none" stroke="#FFFFFF" stroke-linecap="round" stroke-linejoin="round" x1="75" y1="46.02" x2="75" y2="46.02"/>
		
			<line fill="none" stroke="#FFFFFF" stroke-linecap="round" stroke-linejoin="round" stroke-dasharray="0,2.987" x1="77.986" y1="46.02" x2="106.363" y2="46.02"/>
		
			<line fill="none" stroke="#FFFFFF" stroke-linecap="round" stroke-linejoin="round" x1="107.856" y1="46.02" x2="107.856" y2="46.02"/>
		<g>
			<polygon fill="#FFFFFF" points="105.865,47.715 107.562,46.02 105.865,44.324 107.305,44.324 109,46.02 107.305,47.715 			"/>
		</g>
	</g>
</g>
<g>
	<g>
		<line fill="none" stroke="#FFFFFF" stroke-linecap="round" stroke-linejoin="round" x1="206" y1="46.02" x2="206" y2="46.02"/>
		
			<line fill="none" stroke="#FFFFFF" stroke-linecap="round" stroke-linejoin="round" stroke-dasharray="0,2.987" x1="208.986" y1="46.02" x2="237.363" y2="46.02"/>
		
			<line fill="none" stroke="#FFFFFF" stroke-linecap="round" stroke-linejoin="round" x1="238.856" y1="46.02" x2="238.856" y2="46.02"/>
		<g>
			<polygon fill="#FFFFFF" points="236.865,47.715 238.562,46.02 236.865,44.324 238.305,44.324 240,46.02 238.305,47.715 			"/>
		</g>
	</g>
</g>
</svg>
