<?xml version="1.0" encoding="utf-8"?>
<!-- Generator: Adobe Illustrator 15.1.0, SVG Export Plug-In . SVG Version: 6.00 Build 0)  -->
<!DOCTYPE svg PUBLIC "-//W3C//DTD SVG 1.1//EN" "http://www.w3.org/Graphics/SVG/1.1/DTD/svg11.dtd">
<svg version="1.1" id="Ebene_1" xmlns="http://www.w3.org/2000/svg" xmlns:xlink="http://www.w3.org/1999/xlink" x="0px" y="0px"
	 width="32px" height="32px" fill="#444444" viewBox="0 0 32 32" enable-background="new 0 0 32 32" xml:space="preserve">
<g>
	<path fill="#444444" d="M16.653,19.936h-3.128v-1.307c0-5.602,6.05-5.534,6.05-9.315c0-1.89-1.341-2.956-3.575-2.956
		c-1.615,0-3.265,0.756-4.675,2.475l-2.2-1.65c1.994-2.337,4.331-3.437,7.184-3.437c4.33,0,6.565,2.612,6.565,5.362
		c0,5.5-6.222,4.778-6.222,9.693V19.936z M15.175,23.475c1.375,0,2.406,1.066,2.406,2.373c0,1.34-1.031,2.406-2.406,2.406
		c-1.341,0-2.372-1.066-2.372-2.406C12.803,24.541,13.834,23.475,15.175,23.475z"/>
</g>
</svg>
