<?xml version="1.0" encoding="utf-8"?>
<!-- Generator: Adobe Illustrator 17.1.0, SVG Export Plug-In . SVG Version: 6.00 Build 0)  -->
<!DOCTYPE svg PUBLIC "-//W3C//DTD SVG 1.1//EN" "http://www.w3.org/Graphics/SVG/1.1/DTD/svg11.dtd">
<svg version="1.1" id="Ebene_1" xmlns="http://www.w3.org/2000/svg" xmlns:xlink="http://www.w3.org/1999/xlink" x="0px" y="0px"
	 width="136px" height="207.9px" viewBox="0 0 136 207.9" enable-background="new 0 0 136 207.9" xml:space="preserve">
<g>
	<g opacity="0.75">
		<polygon points="49.6,53.7 49.6,75.7 33.8,75.7 		"/>
		<path d="M69.1,18.9c-28.6,0-51.8,23.2-51.8,51.8s23.2,51.8,51.8,51.8s51.8-23.2,51.8-51.8C120.9,42,97.7,18.9,69.1,18.9z
			 M62.1,84.7V98H49.2V84.7H26.7v-8l22.4-29.2h12.5v28.1l8.6-0.1l0.1,9.2H62.1z M73.5,84.8c0,0-4.8-5.3,7.7-12.1
			c18.5-10.1,17.2-16.9,12.5-20.4c-4.8-3.6-10.1-0.5-10.1-0.5s5.8,4.9,0,10.5c-5.8,5.7-13-1.3-9.5-7.3c2.4-4.2,12.6-10,22.7-7.6
			c8.8,2.2,15.3,10.8,9,18S84,77.1,84,77.1h27.9v7.7L73.5,84.8L73.5,84.8z"/>
	</g>
	<g>
		<g>
			<polygon fill="#D35417" points="48.5,52.6 48.5,74.6 32.7,74.6 			"/>
			<path fill="#D35417" d="M68,17.8c-28.6,0-51.8,23.2-51.8,51.8c0,28.6,23.2,51.8,51.8,51.8s51.8-23.2,51.8-51.8
				C119.8,40.9,96.6,17.8,68,17.8z M61,83.6v13.3H48.1V83.6H25.6v-8L48,46.4h12.5v28.1l8.6-0.1l0.1,9.2H61z M72.4,83.7
				c0,0-4.8-5.3,7.7-12.1c18.5-10.1,17.2-16.9,12.5-20.4c-4.8-3.6-10.1-0.5-10.1-0.5s5.8,4.9,0,10.5c-5.8,5.7-13-1.3-9.5-7.3
				c2.4-4.2,12.6-10,22.7-7.6c8.8,2.2,15.3,10.8,9,18S82.9,76,82.9,76h27.9v7.7L72.4,83.7L72.4,83.7z"/>
		</g>
	</g>
</g>
<g>
	<g opacity="0.75">
		<circle cx="98" cy="136.4" r="11.3"/>
	</g>
	<g>
		<circle fill="#D35417" cx="96.9" cy="135.3" r="11.3"/>
	</g>
</g>
<g>
	<g opacity="0.75">
		<circle cx="100.3" cy="166.4" r="8.3"/>
	</g>
	<g>
		<circle fill="#D35417" cx="99.2" cy="165.3" r="8.3"/>
	</g>
</g>
<g>
	<g opacity="0.75">
		<circle cx="88.1" cy="191.5" r="6"/>
	</g>
	<g>
		<circle fill="#D35417" cx="87" cy="190.4" r="6"/>
	</g>
</g>
</svg>
