<?xml version="1.0" encoding="utf-8"?>
<!-- Generator: Adobe Illustrator 15.1.0, SVG Export Plug-In . SVG Version: 6.00 Build 0)  -->
<!DOCTYPE svg PUBLIC "-//W3C//DTD SVG 1.1//EN" "http://www.w3.org/Graphics/SVG/1.1/DTD/svg11.dtd">
<svg version="1.1" id="Ebene_1" xmlns="http://www.w3.org/2000/svg" xmlns:xlink="http://www.w3.org/1999/xlink" x="0px" y="0px"
	 width="86.734px" height="86.734px" viewBox="0 0 86.734 86.734" enable-background="new 0 0 86.734 86.734" xml:space="preserve">
<g>
	<g opacity="0.75">
		<path fill="#D25414" d="M43.651,86.734c-23.757,0-43.084-19.327-43.084-43.083c0-23.757,19.327-43.084,43.084-43.084
			c23.757,0,43.083,19.327,43.083,43.084C86.734,67.407,67.408,86.734,43.651,86.734z M43.651,2.567
			c-22.653,0-41.084,18.431-41.084,41.084s18.431,41.083,41.084,41.083c22.654,0,41.083-18.43,41.083-41.083
			S66.305,2.567,43.651,2.567z"/>
	</g>
	<g>
		<path fill="#D25414" d="M43.084,86.167C19.327,86.167,0,66.839,0,43.084C0,19.327,19.327,0,43.084,0s43.084,19.327,43.084,43.084
			C86.168,66.839,66.841,86.167,43.084,86.167z M43.084,2C20.431,2,2,20.431,2,43.084c0,22.653,18.431,41.083,41.084,41.083
			s41.084-18.43,41.084-41.083C84.168,20.431,65.737,2,43.084,2z"/>
	</g>
</g>
<g>
	<g opacity="0.75">
		<polygon fill="#D25414" points="20.083,46.439 29.164,46.439 33.381,32.674 33.264,32.557 		"/>
		<path fill="#D25414" d="M43.651,5.651c-20.986,0-37.999,17.013-37.999,37.999c0,20.987,17.013,38,37.999,38
			c20.986,0,38-17.013,38-38C81.65,22.664,64.637,5.651,43.651,5.651z M37.482,57.217l-1.172,4.512H20.083l1.289-4.512h2.167
			c1.875,0,2.461-0.292,3.046-2.342l0.82-2.87H12l1.992-7.148l21.967-22.318h7.088L36.31,46.087h4.394l-1.641,5.918h-4.394
			l-0.82,2.87c-0.233,0.703-0.233,0.938-0.233,1.172C33.616,57.217,35.08,57.217,37.482,57.217z M57.631,55.46
			c2.285,0,2.813-0.233,3.34-2.284l0.352-1.112h6.326l-2.754,9.665H39.648l1.698-5.916c2.754-1.816,16.929-13.298,20.679-19.214
			c0.996-1.641,1.521-2.987,1.521-4.569c0-3.515-3.104-3.632-3.807-3.632c-3.164,0-4.334,2.401-5.389,6.15h-6.326l2.459-8.552
			c3.223-2.285,7.146-3.457,11.072-3.457c6.033,0,10.074,3.223,10.074,8.787c0,7.322-6.326,12.595-18.979,23.197l-1.055,0.938
			H57.631z"/>
	</g>
	<g>
		<polygon fill="#D25414" points="19.517,45.873 28.597,45.873 32.814,32.107 32.697,31.99 		"/>
		<path fill="#D25414" d="M43.084,5.084c-20.986,0-37.999,17.013-37.999,37.999s17.013,37.999,37.999,37.999s38-17.013,38-37.999
			S64.07,5.084,43.084,5.084z M36.915,56.651l-1.172,4.511H19.517l1.289-4.511h2.167c1.875,0,2.461-0.293,3.046-2.343l0.82-2.87
			H11.433l1.992-7.147l21.967-22.318h7.088l-6.736,23.549h4.394l-1.641,5.917h-4.394l-0.82,2.87
			c-0.233,0.703-0.233,0.938-0.233,1.172C33.049,56.651,34.513,56.651,36.915,56.651z M57.064,54.894
			c2.284,0,2.812-0.234,3.339-2.285l0.352-1.112h6.326l-2.753,9.665H39.081l1.698-5.916c2.754-1.816,16.93-13.298,20.679-19.214
			c0.996-1.641,1.522-2.987,1.522-4.569c0-3.515-3.104-3.632-3.808-3.632c-3.163,0-4.334,2.401-5.389,6.15h-6.326l2.46-8.552
			c3.222-2.285,7.146-3.457,11.071-3.457c6.033,0,10.075,3.223,10.075,8.787c0,7.322-6.326,12.595-18.979,23.197l-1.054,0.938
			H57.064z"/>
	</g>
</g>
</svg>
