<?xml version="1.0" encoding="utf-8"?>
<!-- Generator: Adobe Illustrator 17.1.0, SVG Export Plug-In . SVG Version: 6.00 Build 0)  -->
<!DOCTYPE svg PUBLIC "-//W3C//DTD SVG 1.1//EN" "http://www.w3.org/Graphics/SVG/1.1/DTD/svg11.dtd">
<svg version="1.1" id="Ebene_1" xmlns="http://www.w3.org/2000/svg" xmlns:xlink="http://www.w3.org/1999/xlink" x="0px" y="0px"
	 width="91px" height="89.8px" viewBox="0 0 91 89.8" enable-background="new 0 0 91 89.8" xml:space="preserve">
<g>
	<g opacity="0.75">
		<polygon points="31.3,33.1 31.3,49.2 19.8,49.2 		"/>
		<path d="M45.6,7.7C24.7,7.7,7.8,24.6,7.8,45.5c0,20.9,16.9,37.8,37.8,37.8s37.8-16.9,37.8-37.8C83.3,24.6,66.4,7.7,45.6,7.7z
			 M40.4,55.7v9.7H31v-9.7H14.5v-5.8l16.4-21.3H40v20.5l6.3-0.1l0.1,6.7H40.4z M48.7,55.8c0,0-3.5-3.9,5.6-8.8
			c13.5-7.4,12.5-12.3,9.2-14.9c-3.5-2.7-7.3-0.4-7.3-0.4s4.2,3.6,0,7.7c-4.2,4.1-9.5-0.9-7-5.3c1.7-3,9.2-7.3,16.6-5.5
			c6.4,1.6,11.2,7.9,6.6,13.1c-4.6,5.2-15.9,8.5-15.9,8.5h20.4v5.6H48.7z"/>
	</g>
	<g>
		<g>
			<polygon fill="#D35417" points="30.7,32.5 30.7,48.6 19.2,48.6 			"/>
			<path fill="#D35417" d="M45,7.1C24.1,7.1,7.2,24,7.2,44.9c0,20.9,16.9,37.8,37.8,37.8s37.8-16.9,37.8-37.8
				C82.7,24,65.8,7.1,45,7.1z M39.9,55.2v9.7h-9.4v-9.7H14v-5.8L30.3,28h9.1v20.5l6.3-0.1l0.1,6.7H39.9z M48.1,55.2
				c0,0-3.5-3.9,5.6-8.8c13.5-7.4,12.5-12.3,9.2-14.9c-3.5-2.7-7.3-0.4-7.3-0.4s4.2,3.6,0,7.7c-4.2,4.1-9.5-0.9-7-5.3
				c1.7-3,9.2-7.3,16.6-5.5c6.4,1.6,11.2,7.9,6.6,13.1c-4.6,5.2-15.9,8.5-15.9,8.5h20.4v5.6H48.1z"/>
		</g>
	</g>
</g>
<g>
	<g opacity="0.75">
		<path d="M45.6,88.3c-23.6,0-42.8-19.2-42.8-42.8S21.9,2.6,45.6,2.6s42.8,19.2,42.8,42.8S69.2,88.3,45.6,88.3z M45.6,4.8
			C23.1,4.8,4.9,23,4.9,45.5s18.2,40.7,40.7,40.7s40.7-18.2,40.7-40.7S68,4.8,45.6,4.8z"/>
	</g>
	<g>
		<g>
			<path fill="#D35417" d="M45,87.7c-23.6,0-42.8-19.2-42.8-42.8S21.4,2.1,45,2.1s42.8,19.2,42.8,42.8S68.6,87.7,45,87.7z M45,4.2
				C22.6,4.2,4.3,22.5,4.3,44.9S22.6,85.6,45,85.6s40.7-18.2,40.7-40.7S67.4,4.2,45,4.2z"/>
		</g>
	</g>
</g>
</svg>
